<mxfile host="app.diagrams.net" agent="Mozilla/5.0 (X11; Linux x86_64) AppleWebKit/537.36 (KHTML, like Gecko) Chrome/140.0.0.0 Safari/537.36" version="28.2.5">
  <diagram name="Page-1" id="ckP6d_0O3mrtXHxKNM5_">
    <mxGraphModel dx="1343" dy="696" grid="1" gridSize="10" guides="1" tooltips="1" connect="1" arrows="1" fold="1" page="1" pageScale="1" pageWidth="827" pageHeight="1169" math="0" shadow="0">
      <root>
        <mxCell id="0" />
        <mxCell id="1" parent="0" />
        <mxCell id="_gnKU2DGZmJBK55BrfEl-41" value="📂 pnb-email-automation" style="whiteSpace=wrap;strokeWidth=2;" vertex="1" parent="1">
          <mxGeometry x="459" y="157" width="245" height="54" as="geometry" />
        </mxCell>
        <mxCell id="_gnKU2DGZmJBK55BrfEl-42" value="📂 .github" style="whiteSpace=wrap;strokeWidth=2;" vertex="1" parent="1">
          <mxGeometry x="63" y="261" width="136" height="54" as="geometry" />
        </mxCell>
        <mxCell id="_gnKU2DGZmJBK55BrfEl-43" value="📂 workflows" style="whiteSpace=wrap;strokeWidth=2;" vertex="1" parent="1">
          <mxGeometry x="52" y="365" width="157" height="54" as="geometry" />
        </mxCell>
        <mxCell id="_gnKU2DGZmJBK55BrfEl-44" value="📜 email.yml" style="whiteSpace=wrap;strokeWidth=2;" vertex="1" parent="1">
          <mxGeometry x="52" y="469" width="156" height="54" as="geometry" />
        </mxCell>
        <mxCell id="_gnKU2DGZmJBK55BrfEl-45" value="🐍 send_mail.py" style="whiteSpace=wrap;strokeWidth=2;" vertex="1" parent="1">
          <mxGeometry x="249" y="261" width="180" height="54" as="geometry" />
        </mxCell>
        <mxCell id="_gnKU2DGZmJBK55BrfEl-46" value="📜 requirements.txt" style="whiteSpace=wrap;strokeWidth=2;" vertex="1" parent="1">
          <mxGeometry x="478" y="261" width="207" height="54" as="geometry" />
        </mxCell>
        <mxCell id="_gnKU2DGZmJBK55BrfEl-47" value="📘 README.md" style="whiteSpace=wrap;strokeWidth=2;" vertex="1" parent="1">
          <mxGeometry x="735" y="261" width="170" height="54" as="geometry" />
        </mxCell>
        <mxCell id="_gnKU2DGZmJBK55BrfEl-48" value="📜 LICENSE" style="whiteSpace=wrap;strokeWidth=2;" vertex="1" parent="1">
          <mxGeometry x="955" y="261" width="142" height="54" as="geometry" />
        </mxCell>
        <mxCell id="_gnKU2DGZmJBK55BrfEl-49" value="" style="curved=1;startArrow=none;endArrow=block;exitX=0;exitY=0.76;entryX=0.5;entryY=0;rounded=0;" edge="1" parent="1" source="_gnKU2DGZmJBK55BrfEl-41" target="_gnKU2DGZmJBK55BrfEl-42">
          <mxGeometry relative="1" as="geometry">
            <Array as="points">
              <mxPoint x="131" y="236" />
            </Array>
          </mxGeometry>
        </mxCell>
        <mxCell id="_gnKU2DGZmJBK55BrfEl-50" value="" style="curved=1;startArrow=none;endArrow=block;exitX=0.5;exitY=1;entryX=0.5;entryY=0;rounded=0;" edge="1" parent="1" source="_gnKU2DGZmJBK55BrfEl-42" target="_gnKU2DGZmJBK55BrfEl-43">
          <mxGeometry relative="1" as="geometry">
            <Array as="points" />
          </mxGeometry>
        </mxCell>
        <mxCell id="_gnKU2DGZmJBK55BrfEl-51" value="" style="curved=1;startArrow=none;endArrow=block;exitX=0.5;exitY=1;entryX=0.5;entryY=0;rounded=0;" edge="1" parent="1" source="_gnKU2DGZmJBK55BrfEl-43" target="_gnKU2DGZmJBK55BrfEl-44">
          <mxGeometry relative="1" as="geometry">
            <Array as="points" />
          </mxGeometry>
        </mxCell>
        <mxCell id="_gnKU2DGZmJBK55BrfEl-52" value="" style="curved=1;startArrow=none;endArrow=block;exitX=0;exitY=0.98;entryX=0.5;entryY=0;rounded=0;" edge="1" parent="1" source="_gnKU2DGZmJBK55BrfEl-41" target="_gnKU2DGZmJBK55BrfEl-45">
          <mxGeometry relative="1" as="geometry">
            <Array as="points">
              <mxPoint x="338" y="236" />
            </Array>
          </mxGeometry>
        </mxCell>
        <mxCell id="_gnKU2DGZmJBK55BrfEl-53" value="" style="curved=1;startArrow=none;endArrow=block;exitX=0.5;exitY=1;entryX=0.5;entryY=0;rounded=0;" edge="1" parent="1" source="_gnKU2DGZmJBK55BrfEl-41" target="_gnKU2DGZmJBK55BrfEl-46">
          <mxGeometry relative="1" as="geometry">
            <Array as="points" />
          </mxGeometry>
        </mxCell>
        <mxCell id="_gnKU2DGZmJBK55BrfEl-54" value="" style="curved=1;startArrow=none;endArrow=block;exitX=1;exitY=0.99;entryX=0.5;entryY=0;rounded=0;" edge="1" parent="1" source="_gnKU2DGZmJBK55BrfEl-41" target="_gnKU2DGZmJBK55BrfEl-47">
          <mxGeometry relative="1" as="geometry">
            <Array as="points">
              <mxPoint x="820" y="236" />
            </Array>
          </mxGeometry>
        </mxCell>
        <mxCell id="_gnKU2DGZmJBK55BrfEl-55" value="" style="curved=1;startArrow=none;endArrow=block;exitX=1;exitY=0.77;entryX=0.5;entryY=0;rounded=0;" edge="1" parent="1" source="_gnKU2DGZmJBK55BrfEl-41" target="_gnKU2DGZmJBK55BrfEl-48">
          <mxGeometry relative="1" as="geometry">
            <Array as="points">
              <mxPoint x="1026" y="236" />
            </Array>
          </mxGeometry>
        </mxCell>
        <mxCell id="_gnKU2DGZmJBK55BrfEl-56" value="" style="shape=image;verticalLabelPosition=bottom;labelBackgroundColor=default;verticalAlign=top;aspect=fixed;imageAspect=0;image=data:image/png,iVBORw0KGgoAAAANSUhEUgAAAvUAAAJUCAYAAACVAtnGAAAABHNCSVQICAgIfAhkiAAAABl0RVh0U29mdHdhcmUAZ25vbWUtc2NyZWVuc2hvdO8Dvz4AAAAtdEVYdENyZWF0aW9uIFRpbWUAVGh1IDI1IFNlcCAyMDI1IDAxOjMxOjUxIFBNIElTVNmQcxsAACAASURBVHic7N13dFR1/v/x58ykNxJIA0ILoZOQhCoEkI5EirIigvwsKwqiWLa531VX1FXXFcQuoAgCioVV6S6ilEBCryFBCCEJgUBIJ5A2M78/AoORAGlKRl+Pc+aczOd+2r2Dx/e9930/1+DXtLUVERERERGxW8YbPQEREREREakdBfUiIiIiInbOoX2Hjjd6DiIiIiIiUgsGT58A5dSLiIiIiNgxpd+IiIiIiNg5BfUiIiIiInZOQb2IiIiIiJ1TUC8iIiIiYucU1IuIiIiI2DkF9SIiIiIidk5BvYiIiIiInVNQLyIiIiJi5xTUi4iIiIjYOQX1IiIiIiJ2TkG9iIiIiIidU1AvIiIiImLnFNSLiIiIiNg5BfUiIiIiInZOQb2IiIiIiJ1TUC8iIiIiYucU1IuIiIiI2DkF9SIiIiIidk5BvYiIiIiInauzoN67dyNaPBJC+1fC6LKgOx1eDyf4ybYEjGwMpur3N37CBNLS022f+IREVqxaybRHHsXT06Pa/fXt15cD8fH86+WXbGVp6ens27+/+pO7qGnTphXm+NNP65CQGvdbVd7e3myJjWXl6lW2spWrV5GWnk5YWJfrtl+w8GPS0tPZsWvXLznNeqey4yYiIiJizxxq24HR1UiLKSH49GxUody1sQOujV3x7tEIn75+JM86THFGcbX7z87KIiU1BS9PL0JDwwgPj2DipIlMmng3SUePVrkfd3cPvL29CWzcpNpzuJ6SkhLi4w9WKCu+UFTn41QmICAAdze3arfz9PSgT1QfzGYzgYGBRPWNImZzTI3mMOOF5xk8eAh9brqpRu1/SbeMGMHcefOI6t2blJQUW3lNj5uIiIhIfVSroN7oaqT9y11wCXS5Zj235u50eLULh/8Zz4XkwmqNERcXx0MPPgiUB2Kvz36Dvv368vLLLzPujjuq3M/aNWuYdPdEEhMSqzV+VWRnZzPq1pF13u/15ObmcsfYP1BcXP0TiOiRo3BxcWH1qlWMiI5m5K2jahzU9+/Xv0btfg2DBw++oqw2x01ERESkPqpV+k3Qfa2uG9DbBnIy0XJaCDgYajze6dOneXjqFPLy8ripd286h4batj06fTrLV67g4KFDxCcksnjJJ3Tv3t22fUR0NIsWL+GlV16ptO/XZs4kLT2df86YUaH8g/nzSUtP59Hp02s051WrV7Nh40YGDhrI+u+/50hSEltiY7l70iTCwyNYvWYNR5KS2LBpE1OmTq3QduSoUXy69DN27trNkaQkVq5exR3jxtm2Ozs7s3zlCj5durTa8xo2bBgA8z+cT0HBOQYOHlRh+6XUoi2xsRXK33z7bdLS0xk/YQKNfH1ZtHgJrUNCaN68uS31qGfPXgA08vXlwwUL2LN3H/EJiXy69DOGDhnyqx2ff86Ywe1jxwIQs3UraenpPPHkk1c9bpGRkSxfuYLEH4+wY9cu3p8zh+DgYNv2EdHRtn2fOWsWu/fsJT4hkQULP6Ztu3bV/g1ERERE6kqNg/oGXb3x7ed/3XrFZ4uwWq0AuAa50eTOZjUdEii/yhoXFwfAgAEDbOW9e/fBz9+fdevWcTz5GP1v7s9778/BrYopFsuWLQNg0KDLwa2joyN9+kRhNpv5/LPPajznVsHBvPf+HLy9fSgpKaV58+Y8/cyzvPHWm7QKbk1+Xj6tW7fmH08/bQuIAUJCQgjtEsa+/fvYvHkzoaFhvDZzJpGRkTWeC4CXlydRUVGczTzLtm1xxMbFEhgYSL/+/arVj4e7OydOpAGQl5fHB/Pm8cG8eWRknMJkMvH5558zdMgQnF1cyMo6S1TfKN6dM4e+/fr+KsenuOgCBQUFAHyyeAkfzJvH7t2VPz8Q0qYNn372GRERkeTl5eLi4kL0rbfyydKlBAYGVqj7zDPP8oc77iC/IB9PTw8GDR7Eq//5T7WOnYiIiEhdqnFQ7zsk8Lp1cndmEz99D7nbsmxlfkMCajqkTUbGKQACAi/39Zc//5nePXvxxGOPET1iBAf27ycgMICIyIgq9Rm7dSspKSm0atXKdgdg2PDheHi4s3vXLk6fPn3VtoGBgRUekt24eXOF7UajkZgtW+gaGUHfqD6czjiNu7sb5rIyevfqSa+ePdixfTsAvW66HLQuXLiQ3j178Mf77uP+e+9l4cIFGI1GBg6qeFW9uqJHjsTFxYWYmPJ0m00/bADg1ujqpRClpKTw9ltvAeVB/YznnmPGc8+RkpLCxIl307ZdO/bs2U3P7l3pFxXFf159FWdnZ5599rkK/fxSx+eVl18hJycHgHfffYcZzz3Hxg0bK92Xxx9/HDc3NxYvWkTP7t2JDA/nu+++o2nTpjzxxJMV6np5eXLnuHHc3K8fd168MxAREYGLS9XuWomIiIjUtRoH9U7+1w5gcndnc2zWYby6eNOgW0NbucnFAZNnrZ/PBaC0tMz294kTabY7AgCpqakABPhX/SRi+TffADBmzBgABl9MFVm7du0125WUlLBnz27bJ+HQoSvqfHXxTkB2VhZ79+4B4OuvvyYnJ4fS0lK2bNkCgK+fr61NdlYW+fkFtu8pyeUPevr5+lV5nyozbOhwADb88D0Aq1avxGq1MmDQwFr1+1M9e/UEYNkXyygoOAfA3DlzKCkpoX2H9lcEwDf6+ER26wrAvLlzASgtLeXTJUsACA0LrVD34IEDxF1MS4rdupXMM5kYjUYaN25c7XFFRERE6kKNo2unho62v81FZRx/5yiNBvjjHdmQnG1ZJL/xIw0ivAl+sj0GU8U8eqdGTlwoKPt5l1XW+OIKNsePJQPg7+/P3556ik6dOtGyVTDu7jVb1eSTxUt45NFHGTRoEP968UVu7t+fsrIyvvj882u2q8qDshmnTtn+zr+YEpKbk2srO3euPPA1GsvPswwGA0899RQ9evWiVcuWNPL1pS54eXnSu09vACY/+CD33HcvUB7EBgYG0rdfXzZv2nzV9kZD1Z6J8A8oT81KP3HCVlZUVERWVhaNGzemUaNGpKen27bd6OPj7+eP1Wrl2LFjtrLjF1fLcfeouIRqZubZCt/z8nLx8/fDaKrB2q0iIiIidaDGV+pLckovd+JoxFJiIXn2EU5+mVYe0Hf1qTSgByjNK72irKoa+frSq1f50onHkpMAeG7GDMbdeSf5Bfm89p9XmfzAA8TGbq123yfST7Bjx3ZC2rThrosPgsbFxtlSOGqjrMx8RZnFarlq/XvuuZeHH3kEf39/PvjgQ6ZOmcKCBR/Veh7RI0fi6uoKQKfOnYmIiCQiIhInJycARt46CsB218PBoeJ5n49PQ6oiLy+/vH6jy/UNBgNeXg0wm82cPHmyQv0bfXzy8/IxGAz4+19+TsT34onC2bOZFedqrvkJqYiIiMgvocZBfVHqedvfBpOR1n9qh1uwOxlfnigP6B9vW2lAX3a+jLKcmgX1LVu2ZO68uXh5ebJ37x62bikP3C+96Gnmf2bywbx5rF2zBn+/6z/EW5nlXy8H4J577wVgzerVNeqnttq2awvAl198wdtvvcnKFStwda59zval1JvnZ8ygWdOmts/tt90GYEvBOX36NGazmSZNmhAUVP5ws4+PD+ERFZ9RuFBUviykm6sbpp9cqd65YwcAEyZOtL0sbOq0abi7u5GYkFAhVaomqnp8SktKAGjQwPua/e25mPIz/fHHADCZTPxx8mQAEhISajVXEZH6xODohsnFG5O7Hw4eAb/ax+Tuh8nFB4Oj3hEi8kuocfrN+eRzFV44ZXQyEfK3Dpz94Qz+wwMxGCtP0yg8XFBp+dX06tWL5StX4OfvT5PGTTAajaSlpTL9kUcxm8uv7macyqBjx45Me+QRht8ynBYtWxIQWLP85v/+90v+7+l/0LFjR4qLi/nqq2XXbdOwYUOWr1xRoezhh6ZyIv3EVVpc36mL6SgjRkTj5eWFp6cnQ362HGR1eXl52l44tWL58grbdmzfTkZGhm0VnE0bN7Fr10569OjJf7/+is2bNtEnKgrDz9JvsrOyyM7KwtfPl+83bOB8YSGzZ8/ms6VLmTp1Kt26dWPbjl1kZZ2lZcuWlJWV8a9/vVir/YCqH5/UtDTatW/PgoULOZGextYtW3h91utX1Pto/ocMHTqUe+65l6FDh+Hq6oq3tzenM04za+asWs9XRORGsxpMmFy8MZrq5rm26jIYjODghMnBCYvJBXNxHgbrlXdpRaRmanyl/uz3mZRkV3xDrMnVRMCIxlcN6K1mK6e+rF6g27BRIyIiIvH09CI5OZmFCxcweOAgkpOTbXVeffXfpKSkMGDgAO67/34KCgqY9vCU6u8UUFBwjh++L3+ANGZzjO0hz2txcnKypbFc+ji71u6q+oKP5rN1yxbad2jPA5Mn06ZtW8aOHcu5c9V7eddPXVr1Zs+ePWRkZFyxfe3aNcDlVXD++pe/sm7dOtzdPbh97Fh2bN/BM//4vyvavfD882RkZBAcHEzn0FCKii6Qk5PDXePHs3nTZjw9PQgMDOTA/v1MunviNXP2q6qqx2f2rNeJP3gQP38/IiKuvhRozOYYHpw8maSkJBo3bozVYmHTxk2MGTWK7Kysq7YTEbEHVis3NKD/OaODIyaXa99BFZHqMXj6BNQ4D8K1pRvtXgzF6FC1c4PUD49xdt3Vl4asL95+5x1GjxnDn558slbr04uIiNQHRid3jE4e169YTSF/eJO8pBgy91x7QYmrsZScw1JS84tVInJZrYJ6ANdW7rR6rO013yxbVljGiQXJZG8+e9U69UVAQAA/bNyE2VxGrx7dKSw8f/1GIiIi9ZjRpSFGB8frV/yVWcpKsRRl3+hpiPwm1Po+3IXkQhKf2kfQpJZ4hXvj1MjZtq3sfBnnEvM5Mf84JWeLr9HLjTdq9GgemPwAzYKa4+npwczXXlNALyIivwmGqyy52/GBZRSdTsQlsD058WvxbtOPjO2fkJOwBqOjK23GvYXB6IzVUkx2wrdk7v4CgAbBfQnoNQln7yAyYhdUuFLf5s73OJe2G49m4Th4+pNzYCUZ2xZWa14iUn11klxnKbKQOq98fW+jqxGXJm6UZBfXeJWbG8HPrzzn+tixY7z33rvMnTPnRk9JRESkThgMlafJOrh6kbHrc3xDR2K1Wkn7/nUCe95DTsIanBu24MzuL8lJWIvB5Ez4Y+vJ3Ps1WErJO7aZvGObaTH86Up6teDkFcCRzx/F6OBM2LS1ZOz4BCxXxgRXm5eIVF+dPzFjuWDhfNL1Hy6tbz784AM+/OCDGz0NERGRX1VR5o+YS85RVpSHufgcJpfy3PvinDQ8m3UlaNCfMV/Me3dw8aDs/PXf3ZKXFANWC5bSC1hKL+Do6k1pYeZ124lIzdWPx+BFRETkhrBaLr7o72fvD/HvOh6Tsxsn1r+GFQOB3SdWvU+zlqoU+bXpvpeIiIhcwbN5JIWnDwPQsMPwGzwbEbkeXakXERGRK5zZ/gmBfe7HP3ws2YnfkX98O61vf43Di/9Im3FvY3Bwwtk7CPdmkfh0GEx2wjrO7vniRk9b5Her1ktaioiISP2mJS1FfvuUfiMiIvIbZy2rn0s019d5idgjBfUiIiK/cdayIixl9WuZaYu5FGtZ0Y2ehshvhoJ6ERGR3wFLST5Wa/3IuLVarViK8m/0NER+U/SgrIiIyO+BpQxz4RkMjm4YTc5gcvhVX/5ktVrAXIrFXIK1VGk3InVNQb2IiMjviLX0PGYF1SK/OUq/ERERERGxcyZnV4/nbvQkKjPpnvsYN34CAwcPoUtEJM2ataCw8Bx5ubnXbXv/5Afx9fPlWFISoV3Cmf74k+zcuZ3i4uJqjz1w8BCi+vVj44YfartLlc5v9JjbiR45mtitMZXW7duvPw9OmUYD7wYkJhyq8hiR3bpTXFTEhQsX6mra1+Xt7UPnsDBOpqcDENKmLQ88NJV9e3dTUlJSp2M99PAjxB/YT9t27QkLjyD5WBJOzk5MuPv/MXDwUNq2a4/ZbObMmdPX7Kd9x46MGz+B7j16EdG1O1arhVOnTlZa18HBkWdnvMiGH9bXau79bh5I59BQjvx4+Npza9+RkaPHsHfP7mr1/+yMF4iN3YJZb3QUERH53ajX6TeZmZmsXP41fn7+tG3XngcenMLCjz7k6JEfr9lua0wMubk5dTI2gMVStw8WVWd+4RGRZJ45Q6dOYaz45hvKqrB6gcFgYET0SD5dsojs7F9v/d8u4eG0bdeBndu3A5Cens6G79dz7ty5Oh/L2cmZoqIigoKCSDmeAkD37j0pLi7mrdmzMJvLmPj/7uXChQskHT1SaR8Gg4Gxd9zJooUfkXr8OM7Oznh4eNT5XEVERER+afU6qC8pLiLp6BGSjh4hLnYL06Y/zs0DBnL0yI8YDAZGjrqNtu3a4eTizLGjR/lq2RcUFxczbPgtnDhxgmVffFahv2nTn6C46AIfzH0fgIGDh9D/5gG8+spLFP4s8Lw09k+Nvm0srq6uGI1GWoe0JSsrk+/X/Y8+ffvRpEkQJ06k8dWyL8jNzcHb24cRt46kVevWFJ4r5FD8Qf63djXAVef3c02bBhEQ2JjFixYwYeL/o3NoqO2q7R13TiAwMIC33ngdgKHDR9Ctew9eeuE5Hn70MVxcXLjvj5MBeOb/nsLZ2Ylbom+lbbsOODg6kHI8mS+WfkpxcXGd7Fdol3AGDByMg6MjL778Kps2biAj4ySjxtzGj4cTyc3NoX3Hjtw8YBABAQHk5eXxw/rv2Ld3D+7uHvz96WdZvXI53Xv0xN3Tk8OJifz3i8+uWKmhZ6/eNGnaBIvVwpBhw+jcpQsmB0cMRgNNmjbjcGICZnMZAIcTDxEW1oWko0eYPGUa2+K2sH/vXltfVqsVB5OJnIsnPsXFxba7OU5OTvxh3Hj8/Pzw8PLiu2/XsmvnTiwWM7dEjyQoqBkmBxN7d+8mLnYLAG6ubtwychQBAQE4mEys/24d8QcP4Ormzugxt+Hn609R0QXOF10gN6d8zNvG/oEzp0+zJWYzAH2i+uIfEMBXy7684t9DaJdwevXqjYenB2fOnGHpksWYzWV06RJOVP8BlJaWknU2E6vVcM1/VyIiIvLbY1c59adOnsQ/MBAoD8h27tjG4o8XMPfdt2ndpg039Y66ZvtdO7bTomUr29XYzp3DOHLkxysCeoCmQc148eVXefHlV5n80MO28s6hYaSmHGf2rH/j6enF+ImTiIuL5Z23ZtMqOJjuPXsAkJubw7a4WGbP/A/f/W8t/frfTPMWLaq1v5HdunH+/HkSDx0iLTWFiMhuVWr39cWA8KMP5/H03/+K1Wph+IhoWoe04dNPFrFo4UcEBjZm0JBhdbZfB/btJSnpKCnHj/P03/9qO4G5xNvbh7sm3E3K8eO8MWsmhxMTGXP7WNzdL18Z79U7isUfL2DF118RERFJp9CwK/ZtW9xWUlNT2bNrJ+u+/RZzaRlrVq0gMeEQGRmnCA5ubavbOjgEN3d3AHZu30ZaSuoV/a3/bh2Tp0xl8JBhBDVrbiu/JXokxSUlvDl7Fv+a8U+2xcUC4OTkTGrKcebNeZeP53/ILdHROFx8S+Ndd0/ix8OJvPvWGyz/5muibx2FwWBg0JAhALz15iw+XjgfPz//Kv2OP9UqOISbekexaOF83nx9Fo4OjnTr3h0PDw9G3z6WZZ8vZe57b5N+4gTOzk7V7l9ERETsW72+Uv9zJpMJc1l5nrBfQAA3DxxEUFAzvBo0AMCnoc812+/etYOhw4cT3rUbifHx+AcEsP67/1Va96fpN0U/yUsvulBEzOZNAJzOyMDVzZX4A/sByMrKokGD8jm079CRm3pH0TQoCBcXFwAaNmxEakpKlfbVaDIRGtqFhEMHATgUf5Bht0Tj1aAB+Xl5Verjp4JDQvgxMZHU48cBSExMoGPHTqxeufxX2a/WrUMwmRzY+P16zl84zw/r19Enqi/tO3Yk8VD5swK7dmwjKyuL7Owcxo234uPTsNK+GjXyJTXlOO7uHhVSe2K3bGbUbbfz2BN/orCwkNTUVNw9yoP6Pbt3VtpXzKaN7Nu7my7hkUycdA97du/if2tX07JlS/737dpK13Q+FB8PwPkL5ykoKKBBAy8KCwtpFdwao9FEr169AfDw9MTTy4sWLVrZjnNxcTGHDh7A0al6r2vvFNoZLy9PJt1zPwBeDbxoGtSMgoIC0tPTycg4BcCO7du4ddToavUtIiIi9s+ugvpmzVvYgpchg4fRokULFsz/kIyMUzzxl79et31JSQkHDxwgLKwLri7OFBaeI/7ggcrrVpJ+A3C+qND2t9lcRllpme27xVxmW/P3ttvHkpFxmnffmo3FYuXPf/t7tfa1Y8dOuLm707VbD7p262Erj+zajQ3fr8dqtVRYX9jpOldnHYwOGI2mCt+tXA5Yf+n9MjmUj20wGS9+L/+n99Og+VzBuYtlFqxWKwZDxTQSb28fuvfsQafOoTg6OhIaFo6DoyNDhg0jLnYrBfkF/PeLz231x9w+lrTU659EFeQXELNpI4cTE5n80NTyuwwGY6UPGZeVlZWvtXzp2Fz8HUwmB8xmM/PmvFvJCFZbShCU/zu0BfU/O2cwmSr/T9JkNLFn164rTkI7dOyE5ScPxJb/dvXrrZEiIiLyy6vX6TdOzi60DmlDSJs2jJ9wNw0aePHtmlVAeTB1rqCQM2fO0KRJUxp4eVepzx3b42jcuAkdOnRm/769V613aezWIW1oFRxS7blbrJCbk012djadOneudvuIyK4Univgow/n2T6nTp0kPKIrAPl5ufj6+eHr64eTsxNt2rSztS0qKg9G/fz8cXJywmAwkpJynLbt2tG0aRBNmwbRtl07ko4crdP9Ki4uxsfHB6PJZLuKf0lycjIWi4V+/Qfg4eFBv/4DKCsr49jRqs8hNzeHdd9+i8VcxqoV35CddZatW2JY9+23FOQXVKjbtGkQLVq0ZN+ePQB0Cg2z3dG5xNHJCaPp8olOUFAQBXnlbzhMTUmmXdvLx9TJ6donTYWF58jJyWbwT1KaLh2DlJTjtGnb3lYe3PpyilB+fj5+fgG27y1bBVfaf3JyEhGRXfH2vnw3ysXFhbTUFAIDA21jtWjZCgfH6t0FEBEREftXr6/U+/n5ce/9D5Cfl8/JU+m8/+47ZJwqv1K/4Yf1jL5tLDNefImEhENXXeHk59JSU8k8cwb/gAA+/WTxNce+9KBpSUkxz//zmWrNfc3qFQweOoznXniJbXGx5OZUfTUedw8PQtq0YcvmTRX2K3brFm4fewfNW7Zk65YYOnYO4/E//YXMM2c4dvSILQc9KyuL7XFxRI8cxZChw/n3Ky+w/Ov/cudddzP1kekU5Ofz45HDrF2zslr7dL392hqzmaDmzXj+xZf5Yf13ZJ49Y9uWeeY0Xy37ghEjR9Hrpps4efIkS5csIjc3p0Je/fV4e/vYVvRp0jSI3bsup9W4u3vw4NRpnEhLo6S4iA/mzqH04lXrmwcMZGvMZvbs3mWr7+XpyWNP/oWC/PJXp1usVj7/dAkAq1YuZ/xdk3hwyjQa+fmydfMmtsRUvuzoJYs/XsBdd02iS0QEzk7OJCTE89WyL1m/bh2jRo/h3vsnU1pWypEjR/Dy8gRg27ZYJj/0MNMff5KzmWcpyM+DSp5z3b93L/5+AUx77HHyc/JwdXNlyaKFpKefYPXKFYwbPwFnZ2cSEhPIvM4yniIiIvLbY/D0Cajb9RrtwLjxE/Dz9+edN2ff6KmIiIiIiNRavU6/qWs+Pg3pHBpGx46d6vRlUiIiIiIiN1K9Tr+pa2Nu/wOtQ0KIi9vKwf37bvR0RERERETqxO8y/UZERERE5Lfkd5V+IyIiIiLyW6SgXkRERETEzimoFxERERGxcwrqRURERETsnIJ6ERERERE7p6BeRERERMTOKagXEREREbFzCupFREREROycgnoRERERETunoF5ERERExM4pqBcRERERsXMK6kVERERE7JyCehERERERO6egXkRERETEzjm0Cmlzo+cgIiIiIiK1YPD0CbDe6EmIiIiIiEjNKf1GRERERMTOKagXEREREbFzCupFREREROycgnoRERERETunoF5ERERExM4pqBcRERERsXMK6kVERERE7JyCehERERERO6egXkRERETEzimoFxERERGxcwrqRURERETsnIJ6ERERERE7p6BeRERERMTOKagXEREREbFzCupFREREROycgnoRERERETunoF5ERERExM4pqBcRERERsXMK6kVERERE7Fy9DerHT5hAWnq67ROfkMiKVSuZ9sijeHp6VLu/vv36ciA+nn+9/JKtLC09nX3799d4jk2bNq0wx59+WoeE1LjfqvL29mZLbCwrV6+yla1cvYq09HTCwrpct/2ChR+Tlp7Ojl27fslp1juVHTcRERERe+ZQVx15925Eg0gfXIPccA50piSnlOK08xQeKeD06lNgrlm/2VlZpKSm4OXpRWhoGOHhEUycNJFJE+8m6ejRKvfj7u6Bt7c3gY2b1Gwi11BSUkJ8/MEKZcUXiup8nMoEBATg7uZW7Xaenh70ieqD2WwmMDCQqL5RxGyOqdEcZrzwPIMHD6HPTTfVqP0v6ZYRI5g7bx5RvXuTkpJiK6/pcRMRERGpj2od1BtdjbSYEoJPz0YVyl0bO+Da2BXvHo3w6etH8qzDFGcUV7v/uLg4HnrwQaA8EHt99hv07deXl19+mXF33FHlftauWcOkuyeSmJBY7TlcT3Z2NqNuHVnn/V5Pbm4ud4z9A8XF1T+BiB45ChcXF1avWsWI6GhG3jqqxkF9/379a9Tu1zB48OArympz3ERERETqo1ql3xhdjbR/ucsVAf3PuTV3p8OrXXBt5V6b4Th9+jQPT51CXl4eN/XuTefQUNu2R6dPZ/nKFRw8dIj4hEQWL/mE7t2727aPiI5m0eIlTAvZWQAAIABJREFUvPTKK5X2/drMmaSlp/PPGTMqlH8wfz5p6ek8On16jea8avVqNmzcyMBBA1n//fccSUpiS2wsd0+aRHh4BKvXrOFIUhIbNm1iytSpFdqOHDWKT5d+xs5duzmSlMTK1au4Y9w423ZnZ2eWr1zBp0uXVntew4YNA2D+h/MpKDjHwMGDKmy/lFq0JTa2Qvmbb79NWno64ydMoJGvL4sWL6F1SAjNmze3pR717NkLgEa+vny4YAF79u4jPiGRT5d+xtAhQ3614/PPGTO4fexYAGK2biUtPZ0nnnzyqsctMjKS5StXkPjjEXbs2sX7c+YQHBxs2z4iOtq27zNnzWL3nr3EJySyYOHHtG3Xrtq/gYiIiEhdqVVQH3RfK1wCXao2kJOJltNCwMFQmyHJzc0lLi4OgAEDBtjKe/fug5+/P+vWreN48jH639yf996fg1sVUyyWLVsGwKBBl4NbR0dH+vSJwmw28/lnn9V4zq2Cg3nv/Tl4e/tQUlJK8+bNefqZZ3njrTdpFdya/Lx8WrduzT+eftoWEAOEhIQQ2iWMffv3sXnzZkJDw3ht5kwiIyNrPBcALy9PoqKiOJt5lm3b4oiNiyUwMJB+/ftVqx8Pd3dOnEgDIC8vjw/mzeODefPIyDiFyWTi888/Z+iQITi7uJCVdZaovlG8O2cOffv1/VWOT3HRBQoKCgD4ZPESPpg3j927K39+IKRNGz797DMiIiLJy8vFxcWF6Ftv5ZOlSwkMDKxQ95lnnuUPd9xBfkE+np4eDBo8iFf/859qHTsRERGRulTjoL5BV298+/lft17x2SKsVisArkFuNLmzWU2HtMnIOAVAQGCArewvf/4zvXv24onHHiN6xAgO7N9PQGAAEZERVeozdutWUlJSaNWqle0OwLDhw/HwcGf3rl2cPn36qm0DAwMrPCS7cfPmCtuNRiMxW7bQNTKCvlF9OJ1xGnd3N8xlZfTu1ZNePXuwY/t2AHrddDloXbhwIb179uCP993H/ffey8KFCzAajQwcVPGqenVFjxyJi4sLMTHl6TabftgAwK3R1UshSklJ4e233gLKg/oZzz3HjOeeIyUlhYkT76Ztu3bs2bObnt270i8qiv+8+irOzs48++xzFfr5pY7PKy+/Qk5ODgDvvvsOM557jo0bNla6L48//jhubm4sXrSInt27ExkeznfffUfTpk154oknK9T18vLkznHjuLlfP+68eGcgIiICF5eqneCKiIiI1LUaB/W+QwKvWyd3Zzbx0/eQuy3LVuY3JOAaLaqntLTM9veJE2m2kweA1NRUAAL8qz7e8m++AWDMmDEADL6YKrJ27dprtispKWHPnt22T8KhQ1fU+erinYDsrCz27t0DwNdff01OTg6lpaVs2bIFAF8/X1ub7Kws8vMLbN9Tkssf9PTz9avyPlVm2NDhAGz44XsAVq1eidVqZcCggbXq96d69uoJwLIvllFQcA6AuXPmUFJSQvsO7a8IgG/08Yns1hWAeXPnAlBaWsqnS5YAEBoWWqHuwQMHiLuYlhS7dSuZZzIxGo00bty42uOKiIiI1IUaPyjr5H/tq5K5u7M5NuswXl28adCtoa3c5OKAydMBc0HZNVpfW+OLK9gcP5YMgL+/P3976ik6depEy1bBuLvXbFWTTxYv4ZFHH2XQoEH868UXubl/f8rKyvji88+v2a4qD8pmnDpl+zv/YkpIbk6urezcufLA12gsP88yGAw89dRT9OjVi1YtW9LI15e64OXlSe8+vQGY/OCD3HPfvUB5EBsYGEjffn3ZvGnzVdsbDVVLn/IPKL+Lk37ihK2sqKiIrKwsGjduTKNGjUhPT7dtu9HHx9/PH6vVyrFjx2xlxy+uluPuUXEJ1czMsxW+5+Xl4ufvh9FkqtUcRERERGqqxlfqnRo62v42F5WRNDOR3N3ZAORsy+LYa4dpEOFN6z+3x+hQcRinRk41HZZGvr706lW+dOKx5CQAnpsxg3F33kl+QT6v/edVJj/wALGxW6vd94n0E+zYsZ2QNm246+KDoHGxcbYUjtooK7tyTU+L1XLV+vfccy8PP/II/v7+fPDBh0ydMoUFCz6q9TyiR47E1dUVgE6dOxMREUlERCROTuW/ychbRwHY7no4OFQ87/PxaUhV5OXll9dvdLm+wWDAy6sBZrOZkydPVqh/o49Pfl4+BoMBf//LKWW+F08Uzp7NrDhXc81PSEVERER+CTUO6ktySi934mjEUmIhefYRTn6ZRvIbP9Kgqw/BT7bHYLryym5pXukVZVXRsmVL5s6bi5eXJ3v37mHrlvLA/dKLnmb+ZyYfzJvH2jVr8Pe7fr5/ZZZ/vRyAe+69F4A1q1fXqJ/aatuuLQBffvEFb7/1JitXrMDVufY525dSb56fMYNmTZvaPrffdhuALQXn9OnTmM1mmjRpQlBQ+XMQPj4+hEdUfEbhQlH5spBurm6YfnKleueOHQBMmDjR9rKwqdOm4e7uRmJCQoVUqZqo6vEpLSkBoEED72v2t+diys/0xx8DwGQy8cfJkwFISEio1VxFRKrL4OiGycUbk7sfDh4Bv9rH5O6HycUHg6Pe4yFib2qcflOUeh7XxuVXfA0mI63/1I4jLyWQ8eUJGnT3IfjxtpUG9GXnyyjLqXpQ36tXL5avXIGfvz9NGjfBaDSSlpbK9EcexWwuv7qbcSqDjh07Mu2RRxh+y3BatGxJQGDN8pv/+98v+b+n/0HHjh0pLi7mq6+WXbdNw4YNWb5yRYWyhx+ayon0E1dpcX2nLqajjBgRjZeXF56engz52XKQ1eXl5Wl74dSK5csrbNuxfTsZGRm2VXA2bdzErl076dGjJ//9+is2b9pEn6goDD9Lv8nOyiI7KwtfP1++37CB84WFzJ49m8+WLmXq1Kl069aNbTt2kZV1lpYtW1JWVsa//vVirfYDqn58UtPSaNe+PQsWLuREehpbt2zh9VmvX1Hvo/kfMnToUO65516GDh2Gq6sr3t7enM44zayZs2o9XxGRqrAaTJhcvDGa6uzdkNViMBjBwQmTgxMWkwvm4jwM1hq+PVJEflU1vlJ/PvlcxY6cTIT8rQNN/19Lgp9oh8FUedeFhwsqLb+aho0aERERiaenF8nJySxcuIDBAweRnJxsq/Pqq/8mJSWFAQMHcN/991NQUMC0h6dUf6eAgoJz/PB9+QOkMZtjbA95XouTk5MtjeXSx9m1dlfVF3w0n61bttC+Q3semDyZNm3bMnbsWM6dK6xxn5dWvdmzZw8ZGRlXbF+7dg1weRWcv/7lr6xbtw53dw9uHzuWHdt38Mw//u+Kdi88/zwZGRkEBwfTOTSUoqIL5OTkcNf48WzetBlPTw8CAwM5sH8/k+6eeM2c/aqq6vGZPet14g8exM/fj4iIqy8FGrM5hgcnTyYpKYnGjRtjtVjYtHETY0aNIjsr66rtRETqitXKDQ3of87o4IjJ5dp3OUWk/jB4+gTUKA/C5OVIh1dCcWroXOU2VrOVw88e5HzS9QPlG+ntd95h9Jgx/OnJJ2u1Pr2IiEhVGZ3cMTp5XL/ir8xScg5LSc0vKInIr6PGV+rN+aUkvZqIpezqDzP+XNqC5Hof0AcEBDBw0GByc3NZ9bOUGhERkV+MseoXyaojsNe9tBr975p38AvNS0TqVq3u8V04fp7Dzxyk1WNtr/lm2bLCMk4sSCZ789mr1rnRRo0ezQOTH6BZUHM8PT2Y+dprFBaev9HTEhGR3wnDL7Qsbkbcglq1/6XmJSJ1q9aJexeSC0l8ah9Bk1riFe6NU6PLZ/Rl58s4l5jPifnHKTlbXNuhflF+fuU518eOHeO9995l7pw5N3pKIiLyO2IwVH7zPPj2mViLz+PSuD05h/6HV6senD+VwInvyx/ibzH8adyahGIuyuNCZhJp62eBpRRHdz9ajf4XJjcfijKPkfzN32x9Nu4zGQe3Rjh7N8XBtQHFOakcW/EMBq7MyL3avESkfqlxTv3VGF2NuDRxoyS7uFqr3IiIiPyeOXhU/gb04Nte43xGAsW5p/ANi+bHzx4h/NH17HtrIEZnT/wjxnIqbiEGrLS7+0NOxsyl4Pg2W/uGHaNp0KZfhaA+8KYH8Gl7Mz8unYK5+Bzt7p7Pyc3vUZCyo9I5lJ07Xbc7KyJ1rs4fsbdcsNT7vHkRERF7UpR5FKvFQumFPAxYsWIGgwlLcQEl+Zk0G/QnLKUXMLl64+BatRVrzp3Yg7m4/P/XJQWZOLrX7P0uIlI/1I91s0REROSqrJbyRSl+/vYXtyZd8A0fzZGlj2C1lODeuHOV+7RYtP68yG+JEuVERETslFeL7lzIPIbVUoKzd1Nc/dvc6CmJyA2iK/UiIiJ2KidhDc2HP0vbCXO5kJnE6W0f07jPg1zITKJR52jcm3TC5OaDg2sD2k6YS1FWKqnf1v6t3iJS/9T5g7IiIiJSfUaXhhgdHG/0NK5gKSvFUpR9o6chIteh9BsREZF6wFpWP9+NUl/nJSIVKagXERGpB6xlRVjK6tdS0BZzKdayohs9DRGpAgX1IiIi9YSlJB+rtX5kxVqtVixF+Td6GiJSRXpQVkREpL6wlGEuPIPB0Q2jyRlMDr/qG12tVguYS7GYS7CWKu1GxJ4oqBcREalnrKXnMSuoFpFqMDm7ejx3oydRmUn33Me48RMYOHgIXSIiadasBYWF58jLzb1u2/snP4ivny/HkpII7RLO9MefZOfO7RQXF1d77IGDhxDVrx8bN/xQ212qdH6jx9xO9MjRxG6NqbRu3379eXDKNBp4NyAx4VCVx4js1p3ioiIuXLhQV9O+Lm9vHzqHhXEyPR2AkDZteeChqezbu5uSkpI6Heuhhx8h/sB+2rZrT1h4BMnHknB0cmLM7WPp238AYV3CCWrejORjSVguvrSlMu07dmTc+Al079GLiK7dsVotnDp1stK6Dg6OPDvjRTb8sL5Wc+9380A6h4Zy5MfD16zXvn1HRo4ew949u6vV/7MzXiA2dgtms14sIyIi8ntRr6/UZ2ZmsnL51/j5+dO2XXseeHAKCz/6kKNHfrxmu60xMeTm5tTJ2AAWS93mN1ZnfuERkWSeOUOnTmGs+OYbyqrwEJXBYGBE9Eg+XbKI7OxfbxmyLuHhtG3XgZ3btwOQnp7Ohu/Xc+7cuTofy9nJmaKiIoKCgkg5ngJAaFgXnBydmPve2wCMn3A3oV3C2b1zR6V9GAwGxt5xJ4sWfkTq8eM4Ozvj4eFR53MVERER+aXV66C+pLiIpKNHSDp6hLjYLUyb/jg3DxjI0SM/YjAYGDnqNtq2a4eTizPHjh7lq2VfUFxczLDht3DixAmWffFZhf6mTX+C4qILfDD3fQAGDh5C/5sH8OorL1H4s8Dz0tg/Nfq2sbi6umI0Gmkd0pasrEy+X/c/+vTtR5MmQZw4kcZXy74gNzcHb28fRtw6klatW1N4rpBD8Qf539rVAFed3881bRpEQGBjFi9awISJ/4/OoaG2q7Z33DmBwMAA3nrjdQCGDh9Bt+49eOmF53j40cdwcXHhvj9OBuCZ/3sKZ2cnbom+lbbtOuDg6EDK8WS+WPopxcXFdbJfoV3CGTBwMA6Ojrz48qts2riBjIyTjBpzGz8eTiQ3N4f2HTty84BBBAQEkJeXxw/rv2Pf3j24u3vw96efZfXK5XTv0RN3T08OJyby3y8+u+KBsZ69etOkaRMsVgtDhg2jc5cumBwcMRgNFOTn08DbGwcHB4xGI54enpRcvDszeco0tsVtYf/evba+rFYrDiYTORdPfIqLi213c5ycnPjDuPH4+fnh4eXFd9+uZdfOnVgsZm6JHklQUDNMDib27t5NXOwWANxc3bhl5CgCAgJwMJlY/9064g8ewNXNndFjbsPP15+iogucL7pAbk75mLeN/QNnTp9mS8xmAPpE9cU/IICvln15xb+H0C7h9OrVGw9PD86cOcPSJYsxm8vo0iWcqP4DKC0tJetsJlbrz18kLyIiIr91drX6zamTJ/EPDATKA7KdO7ax+OMFzH33bVq3acNNvaOu2X7Xju20aNnKdjW2c+cwjhz58YqAHqBpUDNefPlVXnz5VSY/9LCtvHNoGKkpx5k96994enoxfuIk4uJieeet2bQKDqZ7zx4A5ObmsC0ultkz/8N3/1tLv/4307xFi2rtb2S3bpw/f57EQ4dIS00hIrJbldp9fTEg/OjDeTz9979itVoYPiKa1iFt+PSTRSxa+BGBgY0ZNGRYne3XgX17SUo6Ssrx4zz997/aTmAu8fb24a4Jd5Ny/DhvzJrJ4cRExtw+Fnf3y1fGe/WOYvHHC1jx9VdERETSKTTsin3bFreV1NRU9uzaybpvv8VcWsaaVStITDjEkR8Pk3L8ONMefZypjzzGvn17OHhgPwA7t28jLSX1iv7Wf7eOyVOmMnjIMIKaNbeV3xI9kuKSEt6cPYt/zfgn2+JiAXByciY15Tjz5rzLx/M/5JboaBwuvizmrrsn8ePhRN596w2Wf/M10beOwmAwMGjIEADeenMWHy+cj5+ff5V+x59qFRzCTb2jWLRwPm++PgtHB0e6de+Oh4cHo28fy7LPlzL3vbdJP3ECZ2enavcvIiIi9q1eX6n/OZPJhLmsPE/YLyCAmwcOIiioGV4NGgDg09Dnmu1379rB0OHDCe/ajcT4ePwDAlj/3f8qrfvT9Juin+SlF10oImbzJgBOZ2Tg6uZK/MXAMSsriwYNyufQvkNHbuodRdOgIFxcXABo2LARqSkpVdpXo8lEaGgXEg4dBOBQ/EGG3RKNV4MG5OflVamPnwoOCeHHxERSjx8HIDExgY4dO7F65fJfZb9atw7BZHJg4/frOX/hPD+sX0efqL6079iRxEPlzwrs2rGNrKwssrNzGDfeio9Pw0r7atTIl9SU47i7e1RI7Qls3JgOHTsRs3kjzi4uRPXvT2pKChkZp9ize2elfcVs2si+vbvpEh7JxEn3sGf3Lv63djUtW7bkf9+urXRpuUPx8QCcv3CegoICGjTworCwkFbBrTEaTfTq1RsAD09PPL28aNGile04FxcXc+jgARydqvfWyE6hnfHy8mTSPfcD4NXAi6ZBzSgoKCA9PZ2MjFMA7Ni+jVtHja5W3yIiImL/7Cqob9a8hS14GTJ4GC1atGDB/A/JyDjFE3/563Xbl5SUcPDAAcLCuuDq4kxh4TniDx6ovG4l6TcA54sKbX+bzWWUlZbZvlvMZbalx267fSwZGad5963ZWCxW/vy3v1drXzt27ISbuztdu/Wga7cetvLIrt3Y8P16rFZLhWXOnK5zddbB6IDRaKrw3crlgPWX3i+TQ/nYBpPx4vfyf3o/DZrPFZy7WGbBarViMFRMI/H29qF7zx506hyKo6MjoWHhODg6MmTYMOJit9I7qi87dmxjx7a48rEw0Lf/AL747JNrzq0gv4CYTRs5nJjI5Iemlt9lMBgrfci4rKysfMm3S8fm4u9gMjlgNpuZN+fdSkawYjZfPp4lJSWXg/qfnTOYTJX/J2kymtiza9cVJ6EdOnbC8pMHYst/u/r18hoRERH55dXr9BsnZxdah7QhpE0bxk+4mwYNvPh2zSqgPJg6V1DImTNnaNKkKQ28vKvU547tcTRu3IQOHTqzf9/eq9a7NHbrkDa0Cg6p9twtVsjNySY7O5tOnTtXu31EZFcKzxXw0YfzbJ9Tp04SHtEVgPy8XHz9/PD19cPJ2Yk2bdrZ2hYVlQejfn7+ODk5YTAYSUk5Ttt27WjaNIimTYNo264dSUeO1ul+FRcX4+Pjg9Fksl3FvyQ5ORmLxUK//gPw8PCgX/8BlJWVcexo1eeQm5vDum+/xWIuY9WKb8jOOsvWLTGs+/ZbCvILsFqteHl6YjAYMBgMeHh4UFJSniPfKTTMdkfnEkcnJ4ymyyc6QUFBFOSVv2glNSWZdm0vH1Mnp2ufNBUWniMnJ5vBP0lpunQMUlKO06Zte1t5cOvWtr/z8/Px8wuwfW/ZKrjS/pOTk4iI7Iq39+W7US4uLqSlphAYGGgbq0XLVjg4Vu8ugIiIiNi/en2l3s/Pj3vvf4D8vHxOnkrn/XffIeNU+ZX6DT+sZ/RtY5nx4kskJByq9Kp6ZdJSU8k8cwb/gAA+/WTxNce+9KBpSUkxz//zmWrNfc3qFQweOoznXniJbXGx5OZUfTUedw8PQtq0YcvmTRX2K3brFm4fewfNW7Zk65YYOnYO4/E//YXMM2c4dvSILQc9KyuL7XFxRI8cxZChw/n3Ky+w/Ov/cudddzP1kekU5Ofz45HDrF2zslr7dL392hqzmaDmzXj+xZf5Yf13ZJ49Y9uWeeY0Xy37ghEjR9Hrpps4efIkS5csIjc3p0Je/fV4e/vYVvRp0jSI3bsup9VsWL+eOydM5O//eBar1UJubi4fL/gIgJsHDGRrzGb27N5lq+/l6cljT/6FgvzyNzharFY+/3QJAKtWLmf8XZN4cMo0Gvn5snXzJrbEVL7s6CWLP17AXXdNoktEBM5OziQkxPPVsi9Zv24do0aP4d77J1NaVsqRI0fw8vIEYNu2WCY/9DDTH3+Ss5lnKcjPg0qec92/dy/+fgFMe+xx8nPycHVzZcmihaSnn2D1yhWMGz8BZ2dnEhITyDxzusrHU0RERH4bDJ4+AfXjfdS/onHjJ+Dn7887b86+0VMREREREam1ep1+U9d8fBrSOTSMjh071enLpEREREREbqR6nX5T18bc/gdah4QQF7eVg/v33ejpiIiIiIjUid9l+o2IiIiIyG/J7yr9RkRERETkt0hBvYiIiIiInVNQLyIiIiJi5xTUi4iIiIjYOQX1IiIiIiJ2TkG9iIiIiIidU1AvIiIiImLnFNSLiIiIiNg5BfUiIiIiInZOQb2IiIiIiJ1TUC8iIiIiYucU1IuIiIiI2DkF9SIiIiIidk5BvYiIiIiInVNQLyIiIiJi5xxahbS50XMQEREREZFaMHj6BFhv9CRERERERKTmlH4jIiIiImLnFNSLiIiIiNg5BfUiIiIiInZOQb2IiIiIiJ1TUC8iIiIiYucU1IuIiIiI2DkF9SIiIiIidk5BvYiIiIiInVNQLyIiIiJi5xTUi4iIiIjYOQX1IiIiIiJ2TkG9iIiIiIidU1AvIiIiImLnFNSLiIiIiNg5BfUiIiIiInZOQb2IiIiIiJ1TUC8iIiIiYucU1IuIiIiI2DkF9SIiIiIidq7Ognrv3o1o8UgI7V8Jo8uC7nR4PZzgJ9sSMLIxmKrf3/gJE0hLT7d94hMSWbFqJdMeeRRPT49q99e3X18OxMfzr5dfspWlpaezb//+6k/uoqZNm1aY408/rUNCatxvVXl7e7MlNpaVq1fZylauXkVaejphYV2u237Bwo9JS09nx65dv+Q0653KjpuIiIiIPXOobQdGVyMtpoTg07NRhXLXxg64NnbFu0cjfPr6kTzrMMUZxdXuPzsri5TUFLw8vQgNDSM8PIKJkyYyaeLdJB09WuV+3N098Pb2JrBxk2rP4XpKSkqIjz9Yoaz4QlGdj1OZgIAA3N3cqt3O09ODPlF9MJvNBAYGEtU3ipjNMTWaw4wXnmfw4CH0uemmGrX/Jd0yYgRz580jqndvUlJSbOU1PW4iIiIi9VGtgnqjq5H2L3fBJdDlmvXcmrvT4dUuHP5nPBeSC6s1RlxcHA89+CBQHoi9PvsN+vbry8svv8y4O+6ocj9r16xh0t0TSUxIrNb4VZGdnc2oW0fWeb/Xk5ubyx1j/0BxcfVPIKJHjsLFxYXVq1YxIjqakbeOqnFQ379f/xq1+zUMHjz4irLaHDcRERGR+qhW6TdB97W6bkBvG8jJRMtpIeBgqPF4p0+f5uGpU8jLy+Om3r3pHBpq2/bo9OksX7mCg4cOEZ+QyOIln9C9e3fb9hHR0SxavISXXnml0r5fmzmTtPR0/jljRoXyD+bPJy09nUenT6/RnFetXs2GjRsZOGgg67//niNJSWyJjeXuSZMID49g9Zo1HElKYsOmTUyZOrVC25GjRvHp0s/YuWs3R5KSWLl6FXeMG2fb7uzszPKVK/h06dJqz2vYsGEAzP9wPgUF5xg4eFCF7ZdSi7bExlYof/Ptt0lLT2f8hAk08vVl0eIltA4JoXnz5rbUo549ewHQyNeXDxcsYM/efcQnJPLp0s8YOmTIr3Z8/jljBrePHQtAzNatpKWn88STT171uEVGRrJ85QoSfzzCjl27eH/OHIKDg23bR0RH2/Z95qxZ7N6zl/iERBYs/Ji27dpV+zcQERERqSs1DuobdPXGt5//desVny3CarUC4BrkRpM7m9V0SKD8KmtcXBwAAwYMsJX37t0HP39/1q1bx/HkY/S/uT/vvT8HtyqmWCxbtgyAQYMuB7eOjo706ROF2Wzm888+q/GcWwUH8977c/D29qGkpJTmzZvz9DPP8sZbb9IquDX5efm0bt2afzz9tC0gBggJCSG0Sxj79u9j8+bNhIaG8drMmURGRtZ4LgBeXp5ERUVxNvMs27bFERsXS2BgIP3696tWPx7u7pw4kQZAXl4eH8ybxwfz5pGRcQqTycTnn3/O0CFDcHZxISvrLFF9o3h3zhz+P3t3HlZVtT9+/H3OYZ4RDrMKiKAoCjghouZsImpZZpq/rJuWaWbdqXu/1dXma1ezyXsd09SyzDJnc5bREXMCB2RWEJlBpjP8/kCPEqhMKdz7eT3PeR7O2mutvfZG6rP3/qy1+w/o/0DOT0V5GcXFxQB8s3Ydy5ct48SJuucP+HTsyLfffUdQUDCFhQWYmZkRPno036xfj4uLS426b731Nk88+SRFxUVYW1sxZOgQ5n/8cYPOnRBCCCFEc2p0UO84zOW+dQqO5XF2djwFh3MNZephzo3dpUFW1lUAnF1u9/XnP/2J0D4hvPbqq4SPGsXpU6dwdnEmKDhKHq29AAAgAElEQVSoXn3GxsSQmpqKl5eX4QnAiJEjsbKy5MTx42RnZ9+1rYuLS41JsgcjI2tsVyqVREVH0yM4iP5h/cjOysbS0gKtRkNoSB9C+vTm6JEjAIT0vR20rl69mtA+vfnDc8/x/NSprF69CqVSyeAhNe+qN1R4RARmZmZERVWn2xzafwCA0eENSyFKTU3li88/B6qD+nlz5zJv7lxSU1OZPPkZfP38iI8/QZ9ePRgQFsbH8+djamrK22/PrdHP73V+PvrwI/Lz8wFYvPhL5s2dy8EDB+s8ljlz5mBhYcHaNWvo06sXwYGB7NmzB3d3d1577fUadW1srHlqwgQeGTCAp24+GQgKCsLMrH5PrYQQQgghmlujg3oTp3sHMAUn8ri88Dw23e2w7dnGUK4yM0Jl3eT5uQBUVWkMP2dkpBueCACkpaUB4OxU/4uIzT//DMC4ceMAGHozVWTnzp33bFdZWUl8/AnDJ+HcuVp1frr5JCAvN5eTJ+MB2LRpE/n5+VRVVREdHQ2Ao9rR0CYvN5eiomLD99Tk6omeakd1vY+pLiOGjwTgwP59AGzbvhW9Xs+gIYOb1O+d+oT0AWDjho0UF5cAsHTJEiorK+nUuVOtAPhhn5/gnj0AWLZ0KQBVVVV8u24dAAHdAmrUPXP6NHE305JiY2LIuZaDUqnE1dW1wfsVQgghhGgOjY6uTdoYG37WlmtI+fISDoOcsAtuQ/7hXJI/vYBtkB3er3dCoaqZR2/iYEJZsea3Xdab680VbFIuJwPg5OTEX994gy5duuDp5Y2lZeNWNflm7TpmvfIKQ4YM4f333uORgQPRaDRs+P77e7arz0TZrKtXDT8X3UwJKcgvMJSVlFQHvkpl9XWWQqHgjTfeoHdICF6enjg4OtIcbGysCe0XCsC06dN59rmpQHUQ6+LiQv8B/Yk8FHnX9kpF/eZEODlXp2ZlZmQYysrLy8nNzcXV1RUHBwcyMzMN2x72+XFSO6HX67l8+bKhLOXmajmWVjWXUM3JuV7je2FhAWonNUpVI9ZuFUIIIYRoBo0O6ivzqzB3rW6uNFaiq9SRvOgizmPcyPoxA9se9njP8asV0ANUFVY1esAOjo6EhFQvnXg5OQmAufPmETFmDLGxMfzr4/lkZGTw/B+ep2/f0Ab1nZGZwdGjR+jduw9P35wIGhUZZUjhaAqNRlurTKfX3bX+s89O5eVZs0hLS2P58hWkpCTTJ6QPU6c+16RxhEdEYG5uDkCXrl1rbY8YPYbIQ5GGpx5GRjX/idjbt6nVpi6FhUXV9R1u11coFNjY2KLVarly5UqN+g/7/BQVFqF2UuPk5MS1a9cAcLx5oXD9ek7NsWobf0EqhBD1oTC2QKkyAZUxCsWDe0+kXq8DrQadtgJ91Y0Htl8hRNM1+r8U5Wm3/9gVKiUd/uiHhbclWT/cCuh96wzoNTc0aPIbF9R7enqydNlSbGysOXkynpjoGADDi54WfLyA5cuWsXPHDpzU95/EW5fNmzYD8OzUqQDs2L69Uf00la+fLwA/bNjAF59/xtYtWzA3bXrO9q3Um3fmzaOtu7vh8/hjjwEYUnCys7PRarW4ubnh4VE9udne3p7AoJpzFMrKq5eFtDC3QHXHnepjR48CMGnyZMPLwmbMnImlpQWJCQk1UqUao77np6qyEgBbW7t79hd/M+Vn9pxXAVCpVPxh2jQAEhISmjRWIYSoL71ChdLcAZWpNQoj0wca0AMoFEoURiaoTK1RmrVBr5AnkEK0Fo2+U38juaTGC6eUJip8/tqZ6/uv4TTSBYWy7jSN0vPFdZbfTUhICJu3bkHt5ISbqxtKpZL09DRmz3oFrbb67m7W1Sz8/f2ZOWsWIx8dSXtPT5xdGpff/OOPP/D3N/8Pf39/Kioq+Omnjfdt06ZNGzZv3VKj7OUXZ5CRmXGXFvd39WY6yqhR4djY2GBtbc2w3ywH2VA2NtaGF05t2by5xrajR46QlZVlWAXn0MFDHD9+jN69+/Djpp+IPHSIfmFhKH6TfpOXm0tebi6Oakf2HTjAjdJSFi1axHfr1zNjxgx69uzJ4aPHyc29jqenJxqNhvfff69JxwH1Pz9p6en4derEqtWrychMJyY6mk8WflKr3lcrVzB8+HCefXYqw4ePwNzcHDs7O7Kzslm4YGGTxyuEEPej14PK3A6lqnnmnTWV0sgYFHboynLvX1kI8dA1+hbA9X05VObVfEOsylyF8yjXuwb0eq2eqz80LNBt4+BAUFAw1tY2JCcns3r1KoYOHkJycrKhzvz5/yQ1NZVBgwfx3PPPU1xczMyXX2r4QQHFxSXs31c9gTQqMsowyfNeTExMCAoKrvExNW/aXfVVX60kJjqaTp078cK0aXT09WX8+PGUlDTs5V13urXqTXx8PFlZWbW279y5A7i9Cs5f/vwXdu/ejaWlFY+PH8/RI0d56//+Xqvdu++8Q1ZWFt7e3nQNCKC8vIz8/HyenjiRyEORWFtb4eLiwulTp5jyzOR75uzXV33Pz6KFn3D2zBnUTmqCgu6+FGhUZBTTp00jKSkJV1dX9Dodhw4eYtyYMeTlyv/QhBC/P5WpZYsJ6G9RqoxQmlg+7GEIIepBYW3v3Og8CHNPC/zeC0BpVL9rg7QVl7m+++5LQ7YUX3z5JWPHjeOPr7/epPXphRBCiPpSmrWpvjvezFxCpmLu3Jnkn//aqPY6TRW68rxmHpUQork1KagHMPeyxOtV33u+WVZTqiFjVTJ5kdfvWqelcHZ2Zv/BQ2i1GkJ696K0VCYKCSGE+P2pLNUPPIe+PvR6HdrSnPtXFEI8VE1+zleWXEriG7/iMcUTm0A7TBxMDds0NzSUJBaRsTKFyusV9+jl4RszdiwvTHuBth7tsLa2YsG//iUBvRBCiAfmbgG99+ML0FfcwMy1E/nnfsHGqzc3riaQsa96vk/7kW9i4RaAtryQspwk0vcuBF0VxpZqvMa+j8rCnvKcyzXu1Lv2m4aRhQOmdu4YmdtSkZ/G5S1voaD2fb6WeKEhhKitWZL3dOU60pZVr++tNFdi5mZBZV5Fo1e5eRjU6uqc68uXL/Pvfy9m6ZIlD3tIQgghBOj1lOWlUHA5Fsdu4ZxfN53AV/aSsW8hSlNrKgoySNn5Pgr0+D2zAut2wRSnHKaqNIcL30ynjX84th0H1OxSp8fKrSsX1r+EtqIEv2dWYtO+J8WpRx/SQQohmqrZZ+ToynTcSLr/5NKWZsXy5axYvvxhD0MIIYSopTznEnqdjqqyQhTo0aMFhQpdRTGVRTm0HfJHdFVlqMztMDK/9xK+t5RkxKOtqP7/dWVxDsaWjVsKWgjRMrSsafZCCCGEqEWvq34Z32/XlrNw645j4Fgurp+FXleJpWvtlwrejU5X+6V/QojWSxLlhBBCiFbKpn0vynIuo9dVYmrnjrlTx4c9JCHEQyJ36oUQQohWKj9hB+1Gvo3vpKWU5SSRffhrXPtNpywnCYeu4Vi6dUFlYY+RuS2+k5ZSnptG2q6mvwBQCNHyNHlJSyGEEEI03e+1Tn1TyTr1QrQOkn4jhBBCtAB6TctcRrmljksIUZME9UIIIUQLoNeUo9O0rKWgddoq9Jryhz0MIUQ9SFAvhBBCtBC6yiL0+paRFavX69GVFz3sYQgh6kkmygohhBAthU6DtvQaCmMLlCpTUBk90De66vU60Fah01air5K0GyFaEwnqhRBCiBZGX3UDrQTVQogGkPQbIYQQQgghWrkWe6d+yrPP4depMwC5ublkpKdz5HAsqSnJ9237/LTppKelsnvXLgK6B/LUxEnM/+h9igoLG7xvgMrKCt75x1uNO5D7jG/suMfp0NGXhR9/VGfd/gMGMuLRcI4fO8JPG3+o9z6Ce/Yi5XISeXkPbhkyOzt7fHw7cuzIEQB8Ovry+BMTWPz5IkpKSpp1Xy++PIvVK5fj3cEHVzd39u7exbQXX6a9p2eNehcvnGf1Vyvu2k8nf38GDxkGetBotRw7EseJ48fqrGtkZMyb/5jH3Lf+3qSxD3hkMNbWVmzbsvme9Tp18qdvv358tWJZg/p/e967fPTBu1RWVDZlmEIIIYRoRVpsUA+Qk5PD1s2bUKud8PXrxAvTX2L1Vyu4dPHCPdvFREVRUJDfLPsG0Omad9JSQ8YXGBRMzrVrdOnSjS0//4ymHisjKBQKRoVH8O26NQ80qO8eGIivX2dDUJ+ZmcmBfXubPaAHMDUxpby8HA8PD1JTUgFYtmRxjTrjHnuCjMy0u/ahUCgY/+RTrFn9FWkpKZiammJlZdXsYxVCCCGE+L216KC+sqKcpEsXSbp0kbjYaGbOnsMjgwZz6eIFFAoFEWMew9fPDxMzUy5fusRPGzdQUVHBiJGPkpGRwcYN39Xob+bs16goL2P50v8AMHjoMAY+Moj5H31A6W8Cz1v7vtPYx8Zjbm6OUqmkg48vubk57Nv9C/36D8DNzYOMjHR+2riBgoJ87OzsGTU6Aq8OHSgtKeXc2TP8snM7wF3H91vu7h44u7iyds0qJk3+f3QNCOBk/AkAnnxqEi4uznz+6ScADB85ip69evPBu3N5+ZVXMTMz47k/TAPgrb+/gampCY+Gj8bXrzNGxkakpiSzYf23VFRUNMtxBXQPZNDgoRgZG/Peh/M5dPAAWVlXGDPuMS6cT6SgIJ9O/v48MmgIzs7OFBYWsn/vHn49GY+lpRV/e/Nttm/dTK/efbC0tuZ8YiI/bviu1ioQfUJCcXN3Q6fXMWzECLp2747KyBiFUkFiwjlDPUtLK3z9/Ph5048ATHtpJofjojl18qShjl6vx0ilIv/mhU9FRQUVFRUAmJiY8MSEiajVaqxsbNizayfHjx1Dp9PyaHgEHh5tURmpOHniBHGx0QBYmFvwaMQYnJ2dMVKp2LtnN2fPnMbcwpKx4x5D7ehEeXkZN8rLKMiv3udj45/gWnY20VGRAPQL64+Ts3OdT2UCugcSEhKKlbUV165dY/26tWi1Grp3DyRs4CCqqqrIvZ6DXq+4578rIYQQQvz3aVU59VevXMHJxQWoDsiOHT3M2q9XsXTxF3To2JG+oWH3bH/86BHae3oZ7sZ27dqNixcv1AroAdw92vLeh/N578P5THvxZUN514BupKWmsGjhP7G2tmHi5CnExcXy5eeL8PL2plef3gAUFORzOC6WRQs+Zs8vOxkw8BHatW/foOMN7tmTGzdukHjuHOlpqQQF96xXu003A8KvVizjzb/9Bb1ex8hR4XTw6ci336xhzeqvcHFxZciwEc12XKd/PUlS0iVSU1J4829/MVzA3GJnZ8/Tk54hNSWFTxcu4HxiIuMeH4+l5e074yGhYaz9ehVbNv1EUFAwXQK61Tq2w3ExpKWlEX/8GLt37UJbpWHHti01AnqAgYMGcfhwbPVKDsCxI4dJT619137vnt1Me2kGQ4eNwKNtO0P5o+ERVFRW8tmihbw/7x8cjosFwMTElLTUFJYtWczXK1fwaHg4RjffAPn0M1O4cD6RxZ9/yuafNxE+egwKhYIhw4YB8PlnC/l69UrUaqd6/R7v5OXtQ9/QMNasXslnnyzE2MiYnr16YWVlxdjHx7Px+/Us/fcXZGZkYGpq0uD+hRBCCNG6teg79b+lUqnQarQAqJ2deWTwEDw82mJjawuAfRv7e7Y/cfwow0eOJLBHTxLPnsXJ2Zm9e36ps+6d6TflZWWG8vKycqIiDwGQnZWFuYU5Z0+fAqpz/21tq8fQqbM/fUPDcPfwwMzMDIA2bRxIS02t17EqVSoCArqTcO4MAOfOnmHEo+HY2NrWe27Anbx9fLiQmEhaSgoAiYkJ+Pt3YfvWzQ/kuDp08EGlMuLgvr3cKLvB/r276RfWn07+/iSeqw7Ijx89TG5uLnl5+UyYqMfevk2dfTk4OJKWmoKlpVWdqT3m5uZ0Dwxi4cf/NJTFn6g7Tz7q0EF+PXmC7oHBTJ7yLPEnjvPLzu14enryy66dda4Xfe7sWQBulN2guLgYW1sbSktL8fLugFKpIiQkFAAra2usbWxo397LcJ4rKio4d+Y0xiYNexV8l4Cu2NhYM+XZ5wGwsbXB3aMtxcXFZGZmkpV1FYCjRw4zeszYBvUthBBCiNavVQX1bdu1NwQvw4aOoH379qxauYKsrKu89ue/3Ld9ZWUlZ06fplu37pibmVJaWsLZM6frrltH+g3AjfJSw89arQZNlcbwXafVGNYTfuzx8WRlZbP480XodHr+9Ne/NehY/f27YGFpSY+evenRs7ehPLhHTw7s24ter6uxdrHJfe7OGimNUCpVNb7ruR2w/t7HpTKq3rdCpbz5vfqf3p1Bc0lxyc0yHXq9HoWiZhqJnZ09vfr0pkvXAIyNjQnoFoiRsTHDRowgLjaG4qJiAMIGDODUrycNqTT3U1xUTNShg5xPTGTaizOqnzIolJTdcTF3i0ajMdz9B9Dd/D2oVEZotdpaef3V9Gi1t89nZWXl7aD+N9cMKlXdf5IqpYr448drXYR29u+CTqs1fK/+3bWsN1IKIYQQ4vfXotNvTEzN6ODTEZ+OHZk46RlsbW3YtWMbUB1MlRSXcu3aNdzc3LG1satXn0ePxOHq6kbnzl059evJu9a7te8OPh3x8vZp8Nh1eijIzyMvL48uXbs2uH1QcA9KS4r5asUyw+fq1SsEBvUAoKiwAEe1GkdHNSamJnTs6GdoW15eHYyq1U6YmJigUChJTU3B188Pd3cP3N098PXzI+nipWY9roqKCuzt7VGqVIa7+LckJyej0+kYMHAQVlZWDBg4CI1Gw+VL9R9DQUE+u3ftQqfVsG3Lz+TlXicmOordu3YZAnoTUxN69g4h8tDBGm27BHQzPNG5xdjEBKXq9oWOh4cHxYXVb09MS03Gz/f2OTUxufdFU2lpCfn5eQy9I6Xp1jlITU2ho28nQ7l3hw6Gn4uKilCrnQ3fPb286+w/OTmJoOAe2NndfhplZmZGeloqLi4uhn219/TCyLhhTwGEEEII0fq16Dv1arWaqc+/QFFhEVeuZvKfxV+SdbX6Tv2B/XsZ+9h45r33AQkJ5+q8q16X9LQ0cq5dw8nZmW+/WXvPfd+aaNqYJS13bN/C0OEjmPvuBxyOi6Ugv/6r8VhaWeHTsSPRkYdqHFdsTDSPj3+Sdp6exERH4d+1G3P++Gdyrl3j8qWLhhz03NxcjsTFER4xhmHDR/LPj95l86YfeerpZ5gxazbFRUVcuHienTu2NuiY7ndcMVGReLRryzvvfcj+vXvIuX7NsC3nWjY/bdzAqIgxhPTty5UrV1i/bg0FBfk18urvx87O3rCij5u7R63lJ/uGhpF08WKtFKVHBg0mJiqS+BPHDWU21ta8+vqfKS6qfi27Tq/n+2/XAbBt62YmPj2F6S/NxEHtSEzkIaKjou45trVfr+Lpp6fQPSgIUxNTEhLO8tPGH9i7ezdjxo5j6vPTqNJUcfHiRWxsrAE4fDiWaS++zOw5r3M95zrFRYVQxzzXUydP4qR2ZuarcyjKL8Tcwpx1a1aTmZnB9q1bmDBxEqampiQkJpBzLbve51MIIYQQ/x0U1vbOzbteYyswYeIk1E5OfPnZooc9FCGEEEIIIZqsRaffNDd7+zZ0DeiGv38XDh7Y/7CHI4QQQgghRLNo0ek3zW3c40/QwceHuLgYzpz69WEPRwghhBBCiGbxP5l+I4QQQgghxH+T/6n0GyGEEEIIIf4bSVAvhBBCCCFEKydBvRBCCCGEEK2cBPVCCCGEEEK0chLUCyGEEEII0cpJUC+EEEIIIUQrJ0G9EEIIIYQQrZwE9UIIIYQQQrRyEtQLIYQQQgjRyklQL4QQQgghRCsnQb0QQgghhBCtnAT1QgghhBBCtHIS1AshhBBCCNHKSVAvhBBCCCFEK2fk5dPxYY9BCCGEEEII0QQKa3tn/cMehBBCCCGEEKLxJP1GCCGEEEKIVk6CeiGEEEIIIVo5CeqFEEIIIYRo5SSoF0IIIYQQopWToF4IIYQQQohWToJ6IYQQQgghWjkJ6oUQQgghhGjlJKgXQgghhBCilZOgXgghhBBCiFZOgnohhBBCCCFaOQnqhRBCCCGEaOUkqBdCCCGEEKKVk6BeCCGEEEKIVk6CeiGEEEIIIVo5CeqFEEIIIYRo5SSoF0IIIYQQopWToF4IIYQQQohWToJ6IYQQQgghWjkJ6oUQQgghhGjlmi2otwt1oP0sHzp91I3uq3rR+ZNAvF/3xTnCFVQN72/ipEmkZ2YaPmcTEtmybSszZ72CtbVVg/vrP6A/p8+e5f0PPzCUpWdm8uupUw0f3E3u7u41xnjnp4OPT6P7rS87OzuiY2PZun2boWzr9m2kZ2bSrVv3+7Zftfpr0jMzOXr8+O85zBanrvMmhBBCCNGaGTW1A6W5kvYv+WDfx6FGubmrEeau5tj1dsC+v5rkheepyKpocP95ubmkpqViY21DQEA3AgODmDxlMlMmP0PSpUv17sfS0go7OztcXN0aPIb7qays5OzZMzXKKsrKm30/dXF2dsbSwqLB7aytregX1g+tVouLiwth/cOIioxq1BjmvfsOQ4cOo1/fvo1q/3t6dNQoli5bRlhoKKmpqYbyxp43IYQQQoiWqElBvdJcSacPu2PmYnbPehbtLOk8vzvn/3GWsuTSBu0jLi6OF6dPB6oDsU8WfUr/Af358MMPmfDkk/XuZ+eOHUx5ZjKJCYkN2n995OXlMWZ0RLP3ez8FBQU8Of4JKioafgERHjEGMzMztm/bxqjwcCJGj2l0UD9wwMBGtXsQhg4dWqusKedNCCGEEKIlalL6jcdzXvcN6A07MlHhOdMHjBSN3l92djYvz3iJwsJC+oaG0jUgwLDtldmz2bx1C2fOneNsQiJr131Dr169DNtHhYezZu06Pvjoozr7/teCBaRnZvKPefNqlC9fuZL0zExemT27UWPetn07Bw4eZPCQwezdt4+LSUlEx8byzJQpBAYGsX3HDi4mJXHg0CFemjGjRtuIMWP4dv13HDt+gotJSWzdvo0nJ0wwbDc1NWXz1i18u359g8c1YsQIAFauWElxcQmDhw6psf1WalF0bGyN8s+++IL0zEwmTpqEg6Mja9auo4OPD+3atTOkHvXpEwKAg6MjK1atIv7kr5xNSOTb9d8xfNiwB3Z+/jFvHo+PHw9AVEwM6ZmZvPb663c9b8HBwWzeuoXECxc5evw4/1myBG9vb8P2UeHhhmNfsHAhJ+JPcjYhkVWrv8bXz6/BvwMhhBBCiObS6KDetocdjgOc7luv4no5er0eAHMPC9yeatvYXQLVd1nj4uIAGDRokKE8NLQfaicndu/eTUryZQY+MpB//2cJFvVMsdi4cSMAQ4bcDm6NjY3p1y8MrVbL99991+gxe3l78+//LMHOzp7KyiratWvHm2+9zaeff4aXdweKCovo0KED//fmm4aAGMDHx4eA7t349dSvREZGEhDQjX8tWEBwcHCjxwJgY2NNWFgY13Ouc/hwHLFxsbi4uDBg4IAG9WNlaUlGRjoAhYWFLF+2jOXLlpGVdRWVSsX333/P8GHDMDUzIzf3OmH9w1i8ZAn9B/R/IOenoryM4uJiAL5Zu47ly5Zx4kTd8wd8Onbk2+++IygomMLCAszMzAgfPZpv1q/HxcWlRt233nqbJ558kqLiIqytrRgydAjzP/64QedOCCGEEKI5NTqodxzmct86BcfyODs7noLDuYYy9TDnxu7SICvrKgDOLrf7+vOf/kRonxBee/VVwkeN4vSpUzi7OBMUHFSvPmNjYkhNTcXLy8vwBGDEyJFYWVly4vhxsrOz79rWxcWlxiTZg5GRNbYrlUqioqPpERxE/7B+ZGdlY2lpgVajITSkDyF9enP0yBEAQvreDlpXr15NaJ/e/OG553h+6lRWr16FUqlk8JCad9UbKjwiAjMzM6KiqtNtDu0/AMDo8IalEKWmpvLF558D1UH9vLlzmTd3LqmpqUye/Ay+fn7Ex5+gT68eDAgL4+P58zE1NeXtt+fW6Of3Oj8fffgR+fn5ACxe/CXz5s7l4IGDdR7LnDlzsLCwYO2aNfTp1YvgwED27NmDu7s7r732eo26NjbWPDVhAo8MGMBTN58MBAUFYWZWv6dWQgghhBDNrdFBvYnTvQOYghN5XF54Hpvudtj2bGMoV5kZobJu8vxcAKqqNIafMzLSDU8EANLS0gBwdqr/RcTmn38GYNy4cQAMvZkqsnPnznu2q6ysJD7+hOGTcO5crTo/3XwSkJeby8mT8QBs2rSJ/Px8qqqqiI6OBsBR7Whok5ebS1FRseF7anL1RE+1o7rex1SXEcNHAnBg/z4Atm3fil6vZ9CQwU3q9059QvoAsHHDRoqLSwBYumQJlZWVdOrcqVYA/LDPT3DPHgAsW7oUgKqqKr5dtw6AgG4BNeqeOX2auJtpSbExMeRcy0GpVOLq6trg/QohhBBCNIdGR9cmbYwNP2vLNaR8eQmHQU7YBbch/3AuyZ9ewDbIDu/XO6FQ1cyjN3EwoaxY89su68315go2KZeTAXBycuKvb7xBly5d8PTyxtKycauafLN2HbNeeYUhQ4bw/nvv8cjAgWg0GjZ8//0929VnomzW1auGn4tupoQU5BcYykpKqgNfpbL6OkuhUPDGG2/QOyQEL09PHBwdaQ42NtaE9gsFYNr06Tz73FSgOoh1cXGh/4D+RB6KvGt7paJ+cyKcnKtTszIzMgxl5eXl5Obm4urqioODA5mZmYZtD/v8OKmd0Ov1XL582VCWcnO1HEurmkuo5uRcr/G9sLAAtZMapaoRa7cKIYQQQjSDRt+pr8yvut2JsRJdpY7kRRe58kN6dUDfw77OgB6gqrCqVll9OTg6EhJSvXTi5eQkAObOm8eEp56iqLiIf308n2kvvEBsbEyD+87IzODo0SP4dOzI0zcnglVNqmUAACAASURBVMbFxhlSOJpCo9HWKtPpdXet/+yzU3l51iycnJxYvnwFM156iVWrvmryOMIjIjA3NwegS9euBAUFExQUjImJCQARo8cAGJ56GBnVvO6zt29DfRQWFlXXd7hdX6FQYGNji1ar5cqVKzXqP+zzU1RYhEKhwMnp9jwRx5sXCtev59Qcq7bxF6RCCCGEEL+HRgf15Wk3DD8rVEo6/NEPC29Lsn7IqA7o5/jWGdBrbmjQ5DcuqPf09GTpsqXY2Fhz8mQ8MdHVgfutFz0t+HgBy5ctY+eOHTip7z+Jty6bN20G4NmpUwHYsX17o/ppKl8/XwB+2LCBLz7/jK1btmBu2vSc7VupN+/Mm0dbd3fD5/HHHgMwpOBkZ2ej1Wpxc3PDw6N6crO9vT2BQTXnKJSVVy8LaWFugeqOO9XHjh4FYNLkyYaXhc2YORNLSwsSExJqpEo1Rn3PT1VlJQC2tnb37C/+ZsrP7DmvAqBSqfjDtGkAJCQkNGmsQgjRUApjC1Rmdqgs1RhZOT+wj8pSjcrMHoWxvMdDiNam0ek3N5JLarxwSmmiwuevnbm+/xpOI11QKOtO0yg9X1xn+d2EhISweesW1E5OuLm6oVQqSU9PY/asV9Bqq+/uZl3Nwt/fn5mzZjHy0ZG09/TE2aVx+c0//vgDf3/z//D396eiooKfftp43zZt2rRh89YtNcpefnEGGZkZd2lxf1dvpqOMGhWOjY0N1tbWDPvNcpANZWNjbXjh1JbNm2tsO3rkCFlZWYZVcA4dPMTx48fo3bsPP276ichDh+gXFobiN+k3ebm55OXm4qh2ZN+BA9woLWXRokV8t349M2bMoGfPnhw+epzc3Ot4enqi0Wh4//33mnQcUP/zk5aejl+nTqxavZqMzHRioqP5ZOEntep9tXIFw4cP59lnpzJ8+AjMzc2xs7MjOyubhQsWNnm8QghRH3qFCpWZHUpV88w9ayiFQglGJqiMTNCpzNBWFKLQ136SKoRoeRp9p/76vhwq82q+IVZlrsJ5lOtdA3q9Vs/VHxoW6LZxcCAoKBhraxuSk5NZvXoVQwcPITk52VBn/vx/kpqayqDBg3ju+ecpLi5m5ssvNfyggOLiEvbvq55AGhUZZZjkeS8mJiaGNJZbH1Pzpt1VX/XVSmKio+nUuRMvTJtGR19fxo8fT0lJw17edadbq97Ex8eTlZVVa/vOnTuA26vg/OXPf2H37t1YWlrx+PjxHD1ylLf+7++12r37zjtkZWXh7e1N14AAysvLyM/P5+mJE4k8FIm1tRUuLi6cPnWKKc9MvmfOfn3V9/wsWvgJZ8+cQe2kJijo7kuBRkVGMX3aNJKSknB1dUWv03Ho4CHGjRlDXm7uXdsJIURz0et5qAH9bymNjFGZ3fsppxCi5VBY2zs3Og/C3NMCv/cCUBrV79ogbcVlru+++9KQLcUXX37J2HHj+OPrrzdpfXohhBCivpQmlihNrO5f8QHTVZagq2z8DSUhxIPRpDfKlqXc4PxbZyjPKr9nPU2phpQvL7aKgN7Z2ZnBQ4ZSUFDAtt+k1AghhBC/G6Xp79KtS8hUvMb+s/Ed/E7jEkI0ryY/4ytLLiXxjV/xmOKJTaAdJg63//g1NzSUJBaRsTKFyusV9+jl4RszdiwvTHuBth7tsLa2YsG//kVp6Y37NxRCCCGageJ3WhY3K25Vk9r/XuMSQjSvZknc05XrSFtWvb630lyJmZsFlXkVjV7l5mFQq6tzri9fvsy//72YpUuWPOwhCSGE+B+iUNT98Nz78QXoK25g5tqJ/HO/YOPVmxtXE8jYVz2Jv/3IN7FwC0BbXkhZThLpexeCrgpjSzVeY99HZWFPec5lkn/+q6FP137TMLJwwNTOHSNzWyry07i85S0U1M7Ivdu4hBAtS7P/perKdNxIKmlVAT3AiuXLaevuzsD+/SWgF0II0XLo9ZTlpZAV/RXWbQM5v246Dl1GA6A0taaiIINzKydy4ZvpWDj7Yt2uelGAqtIcLnwzneyYVbW71OmxcutK8ua/kfj1/8PE1g2b9j0f5FEJIZpZy5hiL4QQQoi7Ks+5hF6no6qsEAV69GhBoUJXUUxlUQ5th/wRXVUZKnM7jMzrt2JNSUY82orqFd4qi3Mwtmzc+12EEC2DBPVCCCFEC6fXVb9h+7cLRlu4dccxcCwX189Cr6vE0rVrvfvU6WT9eSH+m0iinBBCCNFK2bTvRVnOZfS6Skzt3DF36viwhySEeEjkTr0QQgjRSuUn7KDdyLfxnbSUspwksg9/jWu/6ZTlJOHQNRxLty6oLOwxMrfFd9JSynPTSNvV9Ld6CyFania9fEoIIYQQzUNp1galkfHDHkYtOk0VuvK8hz0MIcR9SPqNEEII0QLoNS3z3SgtdVxCiJokqBdCCCFaAL2mHJ2mZS0HrdNWodfc+63xQoiWQYJ6IYQQooXQVRah17eMrFi9Xo+uvOhhD0MIUU8yUVYIIYRoKXQatKXXUBhboFSZgsrogb7RVa/XgbYKnbYSfZWk3QjRmkhQL4QQQrQw+qobaCWoFkI0gMrU3Gruwx5EXaY8+xwTJk5i8NBhdA8Kpm3b9pSWllBYUHDfts9Pm46j2pHLSUkEdA9k9pzXOXbsCBUVFQ3e9+ChwwgbMICDB/Y39ZDqHN/YcY8THjGW2JioOuv2HzCQ6S/NxNbOlsSEc/XeR3DPXlSUl1NWVtZcw74vOzt7unbrxpXMTAB8Ovrywosz+PXkCSorK5t1Xy++PIuzp0/h69eJboFBJF9OAsDc3JyR4aMJ7defvqH9SLp0ifLyu5+DTv7+TJg4iV69Qwjq0Qu9XsfVq1fqrGtkZMzb897jwP69TRr7gEcG0zUggIsXzt+zXqdO/kSMHcfJ+BMN6v/tee8SGxuNVisvlhFCCCH+V7ToO/U5OTls3bwJtdoJX79OvDD9JVZ/tYJLFy/cs11MVBQFBfnNsm8Ana558xsbMr7AoGByrl2jS5dubPn5ZzT1mESlUCgYFR7Bt+vWkJf34JYh6x4YiK9fZ44dOQJAZmYmB/btpaSkpNn3ZWpiSnl5OR4eHqSmpAKgVKl4ftqLbN38M6kpyfftQ6FQMP7Jp1iz+ivSUlIwNTXFysqq2ccqhBBCCPF7a9FBfWVFOUmXLpJ06SJxsdHMnD2HRwYN5tLFCygUCiLGPIavnx8mZqZcvnSJnzZuoKKighEjHyUjI4ONG76r0d/M2a9RUV7G8qX/AWDw0GEMfGQQ8z/6gNLfBJ639n2nsY+Nx9zcHKVSSQcfX3Jzc9i3+xf69R+Am5sHGRnp/LRxAwUF+djZ2TNqdAReHTpQWlLKubNn+GXndoC7ju+33N09cHZxZe2aVUya/P/oGhBguGv75FOTcHFx5vNPPwFg+MhR9OzVmw/encvLr7yKmZkZz/1hGgBv/f0NTE1NeDR8NL5+nTEyNiI1JZkN67+loqKiWY4roHsggwYPxcjYmPc+nM+hgwfIyrrCmHGPceF8IgUF+XTy9+eRQUNwdnamsLCQ/Xv38OvJeCwtrfjbm2+zfetmevXug6W1NecTE/lxw3e1Joz1CQnFzd0NnV7HsBEj6Nq9OyojYxRKBUZGRlzPyakzoJ/20kwOx0Vz6uRJQ5ler8dIpSL/5oVPRUWF4WmOiYkJT0yYiFqtxsrGhj27dnL82DF0Oi2Phkfg4dEWlZGKkydOEBcbDYCFuQWPRozB2dkZI5WKvXt2c/bMacwtLBk77jHUjk6Ul5dxo7yMgvzqfT42/gmuZWcTHRUJQL+w/jg5O/PTxh9qHUNA90BCQkKxsrbi2rVrrF+3Fq1WQ/fugYQNHERVVRW513PQ63/7InkhhBBC/LdrVavfXL1yBScXF6A6IDt29DBrv17F0sVf0KFjR/qGht2z/fGjR2jv6WW4G9u1azcuXrxQK6AHcPdoy3sfzue9D+cz7cWXDeVdA7qRlprCooX/xNrahomTpxAXF8uXny/Cy9ubXn16A1BQkM/huFgWLfiYPb/sZMDAR2jXvn2Djje4Z09u3LhB4rlzpKelEhTcs17tNt0MCL9asYw3//YX9HodI0eF08GnI99+s4Y1q7/CxcWVIcNGNNtxnf71JElJl0hNSeHNv/3FcAFzi52dPU9PeobUlBQ+XbiA84mJjHt8PJaWt++Mh4SGsfbrVWzZ9BNBQcF0CehW69gOx8WQlpZG/PFj7N61C22Vhh3btpCYcI527dtTWFhIeMRYpjz7PP0HDsLExASAY0cOk56aVqu/vXt2M+2lGQwdNgKPtu0M5Y+GR1BRWclnixby/rx/cDguFgATE1PSUlNYtmQxX69cwaPh4RjdfFnM089M4cL5RBZ//imbf95E+OgxKBQKhgwbBsDnny3k69UrUaud6vV7vJOXtw99Q8NYs3oln32yEGMjY3r26oWVlRVjHx/Pxu/Xs/TfX5CZkYGpqUmD+xdCCCFE69ai79T/lkqlQqupzhNWOzvzyOAheHi0xcbWFgD7Nvb3bH/i+FGGjxxJYI+eJJ49i5OzM3v3/FJn3TvTb8rvyEsvLysnKvIQANlZWZhbmHP29CkAcnNzsbWtHkOnzv70DQ3D3cMDMzMzANq0cSAtNbVex6pUqQgI6E7CuTMAnDt7hhGPhmNja0tRYWG9+riTt48PFxITSUtJASAxMQF//y5s37r5gRxXhw4+qFRGHNy3lxtlN9i/dzf9wvrTyd+fxHPVcwWOHz1Mbm4ueXn5TJiox96+TZ19OTg4kpaagqWlVY3UHjMzc8zNzflm7RpMTU0YPmIUgwYNYdeuHcSfOFZnX1GHDvLryRN0Dwxm8pRniT9xnF92bsfT05Nfdu2sc2m5c2fPAnCj7AbFxcXY2tpQWlqKl3cHlEoVISGhAFhZW2NtY0P79l6G81xRUcG5M6cxNmnYWyO7BHTFxsaaKc8+D4CNrQ3uHm0pLi4mMzOTrKyrABw9cpjRY8Y2qG8hhBBCtH6tKqhv2669IXgZNnQE7du3Z9XKFWRlXeW1P//lvu0rKys5c/o03bp1x9zMlNLSEs6eOV133TrSbwBulJcaftZqNWiqNIbvOq3GsPTYY4+PJysrm8WfL0Kn0/Onv/6tQcfq798FC0tLevTsTY+evQ3lwT16cmDfXvR6XY1lzkzuc3fWSGmEUqmq8V3P7YD19z4ulVH1vhUq5c3v1f/07gyaS4pLbpbp0Ov1KBQ100js7Ozp1ac3XboGYGxsTEC3QIyMjRk2YgRxsTEUFxeSdfUKer2O8vJyLpxPoHdI3/uOrbiomKhDBzmfmMi0F2dUP2VQKOucZKzRaKqXfLt1bm7+HlQqI7RaLcuWLK5jD3q02tvns7Ky8nZQ/5trBpWq7j9JlVJF/PHjtS5CO/t3QXfHhNjq313LenmNEEIIIX5/LTr9xsTUjA4+HfHp2JGJk57B1taGXTu2AdXBVElxKdeuXcPNzR1bG7t69Xn0SByurm507tyVU7+evGu9W/vu4NMRL2+fBo9dp4eC/Dzy8vLo0rVrg9sHBfegtKSYr1YsM3yuXr1CYFAPAIoKC3BUq3F0VGNiakLHjn6GtrdWe1GrnTAxMUGhUJKamoKvnx/u7h64u3vg6+dH0sVLzXpcFRUV2Nvbo1SpDHfxb0lOTkan0zFg4CCsrKwYMHAQGo2Gy5fqP4aCgnx279qFTqth25afycu9Tkx0FLt37aK4qJjEc+fo5O9vqN/J39+wEk+XgG6GJzq3GJuYoFTdvtDx8PCguLD6RStpqcn4+d4+p7fSeO6mtLSE/Pw8ht6R0nTrHKSmptDRt5Oh3LtDB8PPRUVFqNXOhu+eXt519p+cnERQcA/s7G4/jTIzMyM9LRUXFxfDvtp7emFk3LCnAEIIIYRo/Vr0nXq1Ws3U51+gqLCIK1cz+c/iL8m6Wn2n/sD+vYx9bDzz3vuAhIRzdd5Vr0t6Who5167h5OzMt9+svee+b000rays4J1/vNWgse/YvoWhw0cw990POBwXS0F+/VfjsbSywqdjR6IjD9U4rtiYaB4f/yTtPD2JiY7Cv2s35vzxz+Rcu8blSxcNOei5ubkciYsjPGIMw4aP5J8fvcvmTT/y1NPPMGPWbIqLirhw8Tw7d2xt0DHd77hioiLxaNeWd977kP1795Bz/ZphW861bH7auIFREWMI6duXK1eusH7dGgoK8mvk1d+PnZ29YUUfN3cPThy/nVaTnp5OWmoas+f8Eb1OT1paCgf27wPgkUGDiYmKJP7EcUN9G2trXn39zxQXVb/BUafX8/236wDYtnUzE5+ewvSXZuKgdiQm8hDRUXUvO3rL2q9X8fTTU+geFISpiSkJCWf5aeMP7N29mzFjxzH1+WlUaaq4ePEiNjbWABw+HMu0F19m9pzXuZ5zneKiQqhjnuupkydxUjsz89U5FOUXYm5hzro1q8nMzGD71i1MmDgJU1NTEhITyLmWXe/zKYQQQoj/Dgpre+eW8T7qB2jCxEmonZz48rNFD3soQgghhBBCNFmLTr9pbvb2bega0A1//y7N+jIpIYQQQgghHqYWnX7T3MY9/gQdfHyIi4vhzKlfH/ZwhBBCCCGEaBb/k+k3QgghhBBC/Df5n0q/EUIIIYQQ4r+RBPVCCCGEEEK0chLUCyGEEEII0cpJUC+EEEIIIUQrJ0G9EEIIIYQQrZwE9UIIIYQQQrRyEtQLIYQQQgjRyklQL4QQQgghRCsnQb0QQgghhBCtnAT1QgghhBBCtHIS1AshhBBCCNHKSVAvhBBCCCFEKydBvRBCCCGEEK2cBPVCCCGEEEK0ckZePh0f9hiEEEIIIYQQTaCwtnfWP+xBCCGEEEIIIRpP0m+EEEIIIYRo5SSoF0IIIYQQopWToF4IIYQQQohWToJ6IYQQQgghWjkJ6oUQQgghhGjlJKgXQgghhBCilZOgXgghhBBCiFZOgnohhBBCCCFaOQnqhRBCCCGEaOUkqBdCCCGEEKKVk6BeCCGEEEKIVk6CeiGEEEIIIVo5CeqFEEIIIYRo5SSoF0IIIYQQopWToF4IIYQQQohWToJ6IYQQQgghWjkJ6oUQQgghhGjlJKgXQgghhBCilZOgXgghhBBCiFZOgnohhBBCCCFauWYL6u1CHWg/y4dOH3Wj+6pedP4kEO/XfXGOcAVVw/ubOGkS6ZmZhs/ZhES2bNvKzFmvYG1t1eD++g/oz+mzZ3n/ww8MZemZmfx66lTDB3eTu7t7jTHe+eng49PofuvLzs6O6NhYtm7fZijbun0b6ZmZdOvW/b7tV63+mvTMTI4eP/57DrPFqeu8CSGEEEK0ZkZN7UBprqT9Sz7Y93GoUW7uaoS5qzl2vR2w768meeF5KrIqGtx/Xm4uqWmp2FjbEBDQjcDAICZPmcyUyc+QdOlSvfuxtLTCzs4OF1e3Bo/hfiorKzl79kyNsoqy8mbfT12cnZ2xtLBocDtrayv6hfVDq9Xi4uJCWP8woiKjGjWGee++w9Chw+jXt2+j2v+eHh01iqXLlhEWGkpqaqqhvLHnTQghhBCiJWpSUK80V9Lpw+6YuZjds55FO0s6z+/O+X+cpSy5tEH7iIuL48Xp04HqQOyTRZ/Sf0B/PvzwQyY8+WS9+9m5YwdTnplMYkJig/ZfH3l5eYwZHdHs/d5PQUEBT45/goqKhl9AhEeMwczMjO3btjEqPJyI0WMaHdQPHDCwUe0ehKFDh9Yqa8p5E0IIIYRoiZqUfuPxnNd9A3rDjkxUeM70ASNFo/eXnZ3NyzNeorCwkL6hoXQNCDBse2X2bDZv3cKZc+c4m5DI2nXf0KtXL8P2UeHhrFm7jg8++qjOvv+1YAHpmZn8Y968GuXLV64kPTOTV2bPbtSYt23fzoGDBxk8ZDB79+3jYlIS0bGxPDNlCoGBQWzfsYOLSUkcOHSIl2bMqNE2YswYvl3/HceOn+BiUhJbt2/jyQkTDNtNTU3ZvHUL365f3+BxjRgxAoCVK1ZSXFzC4KFDamy/lVoUHRtbo/yzL74gPTOTiZMm4eDoyJq16+jg40O7du0MqUd9+oQA4ODoyIpVq4g/+StnExL5dv13DB827IGdn3/Mm8fj48cDEBUTQ3pmJq+9/vpdz1twcDCbt24h8cJFjh4/zn+WLMHb29uwfVR4uOHYFyxcyIn4k5xNSGTV6q/x9fNr8O9ACCGEEKK5NDqot+1hh+MAp/vWq7hejl6vB8DcwwK3p9o2dpdA9V3WuLg4AAYNGmQoDw3th9rJid27d5OSfJmBjwzk3/9ZgkU9Uyw2btwIwJAht4NbY2Nj+vULQ6vV8v133zV6zF7e3vz7P0uws7OnsrKKdu3a8eZbb/Pp55/h5d2BosIiOnTowP+9+aYhIAbw8fEhoHs3fj31K5GRkQQEdONfCxYQHBzc6LEA2NhYExYWxvWc6xw+HEdsXCwuLi4MGDigQf1YWVqSkZEOQGFhIcuXLWP5smVkZV1FpVLx/fffM3zYMEzNzMjNvU5Y/zAWL1lC/wH9H8j5qSgvo7i4GIBv1q5j+bJlnDhR9/wBn44d+fa77wgKCqawsAAzMzPCR4/mm/XrcXFxqVH3rbfe5oknn6SouAhrayuGDB3C/I8/btC5E0IIIYRoTo0O6h2Hudy3TsGxPM7OjqfgcK6hTD3MubG7NMjKugqAs8vtvv78pz8R2ieE1159lfBRozh96hTOLs4EBQfVq8/YmBhSU1Px8vIyPAEYMXIkVlaWnDh+nOzs7Lu2dXFxqTFJ9mBkZI3tSqWSqOhoegQH0T+sH9lZ2VhaWqDVaAgN6UNIn94cPXIEgJC+t4PW1atXE9qnN3947jmenzqV1atXoVQqGTyk5l31hgqPiMDMzIyoqOp0m0P7DwAwOrxhKUSpqal88fnnQHVQP2/uXObNnUtqaiqTJz+Dr58f8fEn6NOrBwPCwvh4/nxMTU15++25Nfr5vc7PRx9+RH5+PgCLF3/JvLlzOXjgYJ3HMmfOHCwsLFi7Zg19evUiODCQPXv24O7uzmuvvV6jro2NNU9NmMAjAwbw1M0nA0FBQZiZ1e+plRBCCCFEc2t0UG/idO8ApuBEHpcXnsemux22PdsYylVmRqismzw/F4CqKo3h54yMdMMTAYC0tDQAnJ3qfxGx+eefARg3bhwAQ2+miuzcufOe7SorK4mPP2H4JJw7V6vOTzefBOTl5nLyZDwAmzZtIj8/n6qqKqKjowFwVDsa2uTl5lJUVGz4nppcPdFT7aiu9zHVZcTwkQAc2L8PgG3bt6LX6xk0ZHCT+r1Tn5A+AGzcsJHi4hIAli5ZQmVlJZ06d6oVAD/s8xPcswcAy5YuBaCqqopv160DIKBbQI26Z06fJu5mWlJsTAw513JQKpW4uro2eL9CCCGEEM2h0dG1SRtjw8/acg0pX17CYZATdsFtyD+cS/KnF7ANssP79U4oVDXz6E0cTCgr1vy2y3pzvbmCTcrlZACcnJz46xtv0KVLFzy9vLG0bNyqJt+sXcesV15hyJAhvP/eezwycCAajYYN339/z3b1mSibdfWq4eeimykhBfkFhrKSkurAV6msvs5SKBS88cYb9A4JwcvTEwdHR5qDjY01of1CAZg2fTrPPjcVqA5iXVxc6D+gP5GHIu/aXqmo35wIJ+fq1KzMjAxDWXl5Obm5ubi6uuLg4EBmZqZh28M+P05qJ/R6PZcvXzaUpdxcLcfSquYSqjk512t8LywsQO2kRqlqxNqtQgghhBDNoNFBfWV+Feau1c2Vxkp0lTqSF13EeYwbWT9mYNvDHu85frUCeoCqwqpGD9jB0ZGQkOqlEy8nJwEwd948IsaMITY2hn99PJ+MjAye/8Pz9O0b2qC+MzIzOHr0CL179+HpmxNBoyKjDCkcTaHRaGuV6fS6u9Z/9tmpvDxrFmlpaSxfvoKUlGT6hPRh6tTnmjSO8IgIzM3NAejStWut7RGjxxB5KNLw1MPIqOY/EXv7NrXa1KWwsKi6vsPt+gqFAhsbW7RaLVeuXKlR/2Gfn6LCItROapycnLh27RoAjjcvFK5fz6k5Vm3jL0iFEKI+FMYWKFUmoDJGoXhw74nU63Wg1aDTVqCvuvHA9iuEaLpG/5eiPO32H7tCpaTDH/2w8LYk64dbAb1vnQG95oYGTX7jgnpPT0+WLluKjY01J0/GExMdA2B40dOCjxewfNkydu7YgZP6/pN467J502YAnp06FYAd27c3qp+m8vXzBeCHDRv44vPP2LplC+amTc/ZvpV68868ebR1dzd8Hn/sMQBDCk52djZarRY3Nzc8PKonN9vb2xMYVHOOQll59bKQFuYWqO64U33s6FEAJk2ebHhZ2IyZM7G0tCAxIaFGqlRj1Pf8VP1/9u47uqoq7eP4996b3gOpEHpogQAJVap0JFKUURHktYwgCJZxZhxnRh2xDyPIWAcQBBXFggUQUATpCR1pCSWENAiE9IS0W94/AhcjAdKUZOb3Weuulex79j77nODyOfs8e++SEgC8vX2u2d6+iyk/jz7+GAAmk4nfT54MQGxsbI36KiJSWTaDCaNrQ0zOnhgcnH/TgB7AYDBicHDC5OyJ0aUBNoPeQIrUF9Ueqb+QkF9uwymjk4nQv7Tn/I/nCBgRhMFYcZpGwdG8CsuvplevXqxYtRL/gAAaBTfCaDSSnJzEozMewWIpG91NO5NGWFgY02fMYMQtI2jWvDmBQdXLb/7yyy/429N/JywsjOLiYr76avl16zRo0IAVq1aWK3v4oWmkpKZcpcb1nbmYjjJyZBReXl54enoy9BfLQVaVl5enfcOplStWlPtu186dpKWl2VfB2bxpM3v27KZHj558+fVXbNm8mT59+2L4RfpNZkYGmRkZ+Pn7sWHjRi4UFDB37lw+XbaMadOm0a1bN3bs2kNGxnmaN2+O2WzmpZderNF1QOXvT1JyMm3btWPxkiWkpCazIgzMVAAAIABJREFUfds2Xp/z+hXHvb9oIcOGDePee+9j2LDhuLq64uPjw9m0s8yZPafG/RURuR6bDUyuPhhNtTPvrKaMDo5g8MFamHH9g0Xkhqv2EMD5DemUZJbfIdbkaiJwZPBVA3qbxcaZL6oW6DZo2JCIiEg8Pb1ISEhgyZLFDBk0mISEBPsxs2b9k8TERAYOGsj9DzxAXl4e0x+eWvWLAvLy8vlxQ9kE0q1bttoneV6Lk5MTERGR5T7OrjUbVV/8/iK2b9tGu/bteHDyZFq3acO4cePIz6/a5l0/d2nVm3379pGWlnbF92vXrgEur4Lz5J+fZN26dbi7e3D7uHHs2rmLZ/7+tyvqvfD886SlpdGyZUs6hodTVFRIVlYWd48fz5bNW/D09CAoKIiDBw4w6Z6J18zZr6zK3p+5c17n8KFD+Af4ExFx9aVAt27ZypTJk4mPjyc4OBib1crmTZsZO3o0mRn6H5qI/PpMzu51JqC/xGhywOjkfqO7ISKVYPD0Dax2HoRrczfavhiO0aFyzwZJC09yft3Vl4asK956+23GjB3LH594okbr04uIiFSW0aVB2eh4LQvqdR+uge1J+OYv1apvNZdiLcqs5V6JSG2rUVAP4NrCnRaPtbnmzrLmAjMpixPI3HL+qsfUFYGBgfy4aTMWi5lePbpTUKCJQiIi8uszufv/5jn0lWGzWbEUpF//QBG5oWr8nq8woYC4p34iZFJzvLr44NTQ2f6d+YKZ/LhcUhadouR88TVaufFGjxnDg5MfpElIUzw9PZj92msK6EVE5DdztYC+5e2zsRVfwCW4HVlHvserRQ8unIklZUPZfJ9mI57GrVE4lqIcCtPjSV4/B6ylOLr702LMS5jcfClKP1lupD64z2Qc3Bri7NMYB1dvirOSOLnyGQxcOc5XFx80RORKtZK8Zy2ykrSgbH1vo6sRl0ZulGQWV3uVmxvB378s5/rkyZO8++47zJ8370Z3SUREBGw2CjNPkX0yGr9OURxdOoUuj6wnZcMcjM6eFGencGrtSxiw0faehXg2jSTv1A5KC9I59vEUGoRF4d26f/kmrTY8GnXk2LKpWIrzaXvPIryadSMvcdcNukgRqalan5FjLbRyIf76k0vrmoXvvcfC99670d0QERG5QlH6CWxWK6WFORiwYcMCBhPW4jxKctNpMviPWEsLMbn64OB67SV8L8lP2YeluOz/1yV56Ti6V28paBGpG+rWNHsRERG5gs1athnfL9eWc2vUGb8uYzi+bAY2awnuwVduKng1VuuVm/6JSP2lRDkREZF6yqtZdwrTT2KzluDs0xjXgNY3uksicoNopF5ERKSeyopdQ9MRz9JmwnwK0+M5u+MDgvtMoTA9noYdo3Bv1AGTmy8Ort60mTCfoowkkr6r+QaAIlL31HhJSxEREam5X2ud+prSOvUi9YPSb0REROoAm7luLqNcV/slIuUpqBcREakDbOYirOa6tRS01VKKzVx0o7shIpWgoF5ERKSOsJbkYrPVjaxYm82GtSj3RndDRCpJE2VFRETqCqsZS8E5DI5uGE3OYHL4TXd0tdmsYCnFainBVqq0G5H6REG9iIhIHWMrvYBFQbWIVIHJ2dXjuRvdiYpMuvd+7hw/gUFDhtI5IpImTZpRUJBPTnb2des+MHkKfv5+nIyPJ7xzFx59/Al2795JcXFxlc89aMhQ+vbvz6aNP9b0kirs35ixtxM1agzR27dWeGy//gOYMnU63j7exMUeqfQ5Irt1p7ioiMLCwtrq9nX5+PjSsVMnTqemAhDaug0PPjSNn/bvpaSkpFbP9dDDMzh88ABt2rajU5cIEk7G4+rmznPPv2T/uw0aMpTo7Vsxm81XbaddWBh3jp9A9x69iOjaHZvNypkzpys81sHBkWdnvsjGH9fXqO/9bx5Ex/Bwjh87es3j2rULY9SYsezft7dK7T878wWio7dhsWhjGRERkf8VdXqkPj09nVUrvsbfP4A2bdvx4JSpLHl/ISeOH7tmve1bt5KdnVUr5wawWms3v7Eq/esSEUn6uXN06NCJld98g7kSk6gMBgMjo0bxydIPycz87ZYh69ylC23atmf3zp0ApKamsnHDevLz82v9XM5OzhQVFRESEkLiqUQAPDw9SE1N4d233qhUGwaDgXF33MWHS94n6dQpnJ2d8fDwqPW+ioiIiPza6nRQX1JcRPyJ48SfOE5M9DamP/o4Nw8cxInjxzAYDIwafRtt2rbFycWZkydO8NXyzykuLmb4iFtISUlh+eeflmtv+qN/oLiokPfm/weAQUOGMuDmgcx69WUKfhF4Xjr3z425bRyurq4YjUZahbYhIyOdDeu+p0+//jRqFEJKSjJfLf+c7OwsfHx8GXnrKFq0akVBfgFHDh/i+7WrAa7av19q3DiEwKBgPvpwMRMm/h8dw8Pto7Z33DWBoKBA3vz36wAMGzGSbt178PILz/HwI4/h4uLC/b+fDMAzf3sKZ2cnbom6lTZt2+Pg6EDiqQQ+X/YJxcXFtXJd4Z27MHDQEBwcHXnxlVls3rSRtLTTjB57G8eOxpGdnUW7sDBuHjiYwMBAcnJy+HH9D/y0fx/u7h789elnWb1qBd179MTd05OjcXF8+fmnV0wY69mrN40aN8JqszJ0+HA6du6MycERg9FAcXEJBfkFFd7LyVOnsyNmGwf277eX2Ww2HEwmsi4++BQXF9vf5jg5OfG7O8fj7++Ph5cXP3y3lj27d2O1WrglahQhIU0wOZjYv3cvMdHbAHBzdeOWUaMJDAzEwWRi/Q/rOHzoIK5u7owZexv+fgEUFRVyoaiQ7Kyyc9427necO3uWbVu3ANCnbz8CAgP5avkXV1xDeOcu9OrVGw9PD86dO8eypR9hsZjp3LkLfQcMpLS0lIzz6dhsv9xIXkRERP7b1avVb86cPk1AUBBQFpDt3rWDjz5YzPx33qJV69bc1LvvNevv2bWTZs1b2EdjO3bsxPHjx64I6AEahzThxVdm8eIrs5j80MP28o7hnUhKPMXcOf/E09OL8RMnERMTzdtvzqVFy5Z079kDgOzsLHbERDN39r/44fu19B9wM02bNavS9UZ268aFCxeIO3KE5KREIiK7Vare1xcDwvcXLuDpvz6JzWZlxMgoWoW25pOPP+TDJe8TFBTM4KHDa+26Dv60n/j4EySeOsXTf33S/gBziY+PL3dPuIfEU6f495zZHI2LY+zt43B3vzwy3qt3Xz76YDErv/6KiIhIOoR3uuLadsRsJykpiX17drPuu++wlJpZ8+1K4mKPYDIZady4EX968q888eRfGDBwkL3e7p07SE5MuqK99T+sY/LUaQwZOpyQJk3t5bdEjaK4pIQ35s7hpZn/YEdMNABOTs4kJZ5iwbx3+GDRQm6JisLh4mYxd98ziWNH43jnzX+z4puvibp1NAaDgcFDhwLw5htz+GDJIvz9Ayr1d/y5Fi1Dual3Xz5csog3Xp+Do4Mj3bp3x8PDgzG3j2P5Z8uY/+5bpKak4OzsVOX2RUREpH6r0yP1v2QymbCYy/KE/QMDuXnQYEJCmuDl7Q2AbwPfa9bfu2cXw0aMoEvXbsQdPkxAYCDrf/i+wmN/nn5T9LO89KLCIrZu2QzA2bQ0XN1cOXzwAAAZGRl4e5f1oV37MG7q3ZfGISG4uLgA0KBBQ5ISEyt1rUaTifDwzsQeOQTAkcOHGH5LFF7e3uTm5FSqjZ9rGRrKsbg4kk6dAiAuLpawsA6sXrXiN7muVq1CMZkc2LRhPRcKL/Dj+nX06duPdmFhxB0pmyuwZ9cOMjIyyMzM4s7xNnx9G1TYVsOGfiQlnsLd3aNcas+J48d45aUXMBgM+PkHMGr0GPJyc9m7Zzf79u6usK2tmzfx0/69dO4SycRJ97Jv7x6+X7ua5s2b8/13aytcWu7I4cMAXCi8QF5eHt7eXhQUFNCiZSuMRhO9evUGwMPTE08vL5o1a2G/z8XFxRw5dBBHp6rtGtkhvCNeXp5MuvcBALy8vWgc0oS8vDxSU1NJSzsDwK6dO7h19JgqtS0iIiL1X70K6ps0bWYPXoYOGU6zZs1YvGghaWln+MOfn7xu/ZKSEg4dPEinTp1xdXGmoCCfw4cOVnxsBek3ABeKLqd3WCxmzKWXJ2FaLWb70mO33T6OtLSzvPPmXKxWG3/6y1+rdK1hYR1wc3ena7cedO3Ww14e2bUbGzesx2azllvmzOk6o7MORgeMRlO5321cDlh/7esyOZSd22AyXvy97J/ez4Pm/Lz8i2VWbDYbBkP5NBIfH1+69+xBh47hODo6Et6pCw6OjgwdPpyY6O3k5ebZ20w/d5Zjx44SEtKUvXsqDugvycvNY+vmTRyNi2PyQ9PK3jIYjBVOMjabzWVLvl26Nxf/DiaTAxaLhQXz3qngDDYslsv3s6Sk5HJQ/4tnBpOp4v8kTUYT+/bsueIhtH1YB6w/mxBb9rerW5vXiIiIyK+vTqffODm70Cq0NaGtWzN+wj14e3vx3ZpvgbJgKj+vgHPnztGoUWO8vXwq1eaunTEEBzeiffuOHPhp/1WPu3TuVqGtadEytMp9t9ogOyuTzMxMOnTsWOX6EZFdKcjP4/2FC+yfM2dO0yWiKwC5Odn4+fvj5+ePk7MTrVu3tdctKioLRv39A3BycsJgMJKYeIo2bdvSuHEIjRuH0KZtW+KPn6jV6youLsbX1xejyWQfxb8kISEBq9VK/wED8fDwoP+AgZjNZk6eqHwfsrOzWPfdd1gtZr5d+Q2ZGefZvm0r6777jrzcvHLndHV1pX37MBITEwDoEN7J/kbnEkcnJ4ymyw86ISEh5OWUbbSSlJhA2zaX76mT07UfmgoK8snKymTIz1KaLvUnMfEUrdu0s5e3bNXK/nNubi7+/oH235u3aFlh+wkJ8UREdsXH5/LbKBcXF5KTEgkKCrKfq1nzFjg4Vu0tgIiIiNR/dXqk3t/fn/seeJDcnFxOn0nlP++8TdqZspH6jT+uZ8xt45j54svExh6pcFS9IslJSaSfO0dAYCCffPzRNc99aaJpSUkxz//jmSr1fc3qlQwZNpznXniZHTHRZGdVfjUedw8PQlu3ZtuWzeWuK3r7Nm4fdwdNmzdn+7athHXsxON//DPp585x8sRxew56RkYGO2NiiBo1mqHDRvDPV19gxddfctfd9zBtxqPk5eZy7PhR1q5ZVaVrut51bd+6hZCmTXj+xVf4cf0PpJ8/Z/8u/dxZvlr+OSNHjabXTTdx+vRpli39kOzsrHJ59dfj4+NrX9GnUeOQcqPw7cM6EDVqDJmZGUDZHIqf9u8D4OaBg9i+dQv79u6xH+/l6cljT/yZvNyyHRytNhuffbIUgG9XrWD83ZOYMnU6Df392L5lM9u2Vrzs6CUffbCYu++eROeICJydnImNPcxXy79g/bp1jB4zlvsemEypuZTjx4/j5eUJwI4d0Ux+6GEeffwJzqefJy83ByqY53pg/34C/AOZ/tjj5Gbl4OrmytIPl5CamsLqVSu5c/wEnJ2diY2LJf3c2UrfTxEREfnvYPD0Dawb+1H/hu4cPwH/gADefmPuje6KiIiIiEiN1en0m9rm69uAjuGdCAvrUKubSYmIiIiI3Eh1Ov2mto29/Xe0Cg0lJmY7hw78dKO7IyIiIiJSK/4n029ERERERP6b/E+l34iIiIiI/DdSUC8iIiIiUs8pqBcRERERqecU1IuIiIiI1HMK6kVERERE6jkF9SIiIiIi9ZyCehERERGRek5BvYiIiIhIPaegXkRERESknlNQLyIiIiJSzymoFxERERGp5xTUi4iIiIjUcwrqRURERETqOQX1IiIiIiL1nIJ6EREREZF6zqFFaOsb3QcREREREakBg6dvoO1Gd0JERERERKpP6TciIiIiIvWcgnoRERERkXpOQb2IiIiISD2noF5EREREpJ5TUC8iIiIiUs8pqBcRERERqecU1IuIiIiI1HMK6kVERERE6jkF9SIiIiIi9ZyCehERERGRek5BvYiIiIhIPaegXkRERESknlNQLyIiIiJSzymoFxERERGp5xTUi4iIiIjUcwrqRURERETqOQX1IiIiIiL1nIJ6EREREZF6TkG9iIiIiEg9V2tBvU/vhjSbEUq7VzvReXF32r/ehZZPtCFwVDCYqt7e+AkTSE5NtX8Ox8ax8ttVTJ/xCJ6eHlVur1//fhw8fJiXXnnZXpacmspPBw5UvXMXNW7cuFwff/5pFRpa7XYry8fHh23R0axa/a29bNXqb0lOTaVTp87Xrb94yQckp6aya8+eX7ObdU5F901ERESkPnOoaQNGVyPNpobi27NhuXLXYAdcg13x6dEQ337+JMw5SnFacZXbz8zIIDEpES9PL8LDO9GlSwQTJ01k0sR7iD9xotLtuLt74OPjQ1Bwoyr34XpKSko4fPhQubLiwqJaP09FAgMDcXdzq3I9T08P+vTtg8ViISgoiL79+rJ1y9Zq9WHmC88zZMhQ+tx0U7Xq/5puGTmS+QsW0Ld3bxITE+3l1b1vIiIiInVRjYJ6o6uRdq90xiXI5ZrHuTV1p/2szhz9x2EKEwqqdI6YmBgemjIFKAvEXp/7b/r178crr7zCnXfcUel21q5Zw6R7JhIXG1el81dGZmYmo28dVevtXk92djZ3jPsdxcVVf4CIGjUaFxcXVn/7LSOjohh16+hqB/UD+g+oVr3fwpAhQ64oq8l9ExEREamLapR+E3J/i+sG9PYTOZloPj0UHAzVPt/Zs2d5eNpUcnJyuKl3bzqGh9u/e+TRR1mxaiWHjhzhcGwcHy39mO7du9u/HxkVxYcfLeXlV1+tsO3XZs8mOTWVf8ycWa78vUWLSE5N5ZFHH61Wn79dvZqNmzYxaPAg1m/YwPH4eLZFR3PPpEl06RLB6jVrOB4fz8bNm5k6bVq5uqNGj+aTZZ+ye89ejsfHs2r1t9xx5532752dnVmxaiWfLFtW5X4NHz4cgEULF5GXl8+gIYPLfX8ptWhbdHS58jfeeovk1FTGT5hAQz8/PvxoKa1CQ2natKk99ahnz14ANPTzY+Hixezb/xOHY+P4ZNmnDBs69De7P/+YOZPbx40DYOv27SSnpvKHJ5646n2LjIxkxaqVxB07zq49e/jPvHm0bNnS/v3IqCj7tc+eM4e9+/ZzODaOxUs+oE3btlX+G4iIiIjUlmoH9d5dffDrH3Dd44rPF2Gz2QBwDXGj0V1NqntKoGyUNSYmBoCBAwfay3v37oN/QADr1q3jVMJJBtw8gHf/Mw+3SqZYLF++HIDBgy8Ht46OjvTp0xeLxcJnn35a7T63aNmSd/8zDx8fX0pKSmnatClPP/Ms/37zDVq0bEVuTi6tWrXi708/bQ+IAUJDQwnv3ImfDvzEli1bCA/vxGuzZxMZGVntvgB4eXnSt29fzqefZ8eOGKJjogkKCqL/gP5VasfD3Z2UlGQAcnJyeG/BAt5bsIC0tDOYTCY+++wzhg0dirOLCxkZ5+nbry/vzJtHv/79fpP7U1xUSF5eHgAff7SU9xYsYO/eiucPhLZuzSeffkpERCQ5Odm4uLgQdeutfLxsGUFBQeWOfeaZZ/ndHXeQm5eLp6cHg4cMZta//lWleyciIiJSm6od1PsNDbruMdm7Mzn86D6yd2TYy/yHBlb3lHZpaWcACAy63Naf//QnevfsxR8ee4yokSM5eOAAgUGBRERGVKrN6O3bSUxMpEWLFvY3AMNHjMDDw529e/Zw9uzZq9YNCgoqN0l205Yt5b43Go1s3baNrpER9Ovbh7NpZ3F3d8NiNtO7V0969ezBrp07Aeh10+WgdcmSJfTu2YPf338/D9x3H0uWLMZoNDJocPlR9aqKGjUKFxcXtm4tS7fZ/ONGAG6NqloKUWJiIm+9+SZQFtTPfO45Zj73HImJiUyceA9t2rZl37699Ozelf59+/KvWbNwdnbm2WefK9fOr3V/Xn3lVbKysgB45523mfncc2zauKnCa3n88cdxc3Pjow8/pGf37kR26cIPP/xA48aN+cMfnih3rJeXJ3fdeSc39+/PXRffDERERODiUrm3ViIiIiK1rdpBvVPAtQOY7L2ZnJxzFK/OPnh3a2AvN7k4YPKs8fxcAEpLzfafU1KS7W8EAJKSkgAIDKj8Q8SKb74BYOzYsQAMuZgqsnbt2mvWKykpYd++vfZP7JEjVxzz1cU3AZkZGezfvw+Ar7/+mqysLEpLS9m2bRsAfv5+9jqZGRnk5ubZf09MKJvo6e/nX+lrqsjwYSMA2PjjBgC+Xb0Km83GwMGDatTuz/Xs1ROA5Z8vJy8vH4D58+ZRUlJCu/btrgiAb/T9iezWFYAF8+cDUFpayidLlwIQ3im83LGHDh4k5mJaUvT27aSfS8doNBIcHFzl84qIiIjUhmpH104NHO0/W4rMnHr7BA0HBuAT2YCsHRkk/PsY3hE+tHyiHQZT+Tx6p4ZOFOaZf9lkpQVfXMHm1MkEAAICAvjLU0/RoUMHmrdoibt79VY1+fijpcx45BEGDx7MSy++yM0DBmA2m/n8s8+uWa8yE2XTzpyx/5x7MSUkOyvbXpafXxb4Go1lz1kGg4GnnnqKHr160aJ5cxr6+VEbvLw86d2nNwCTp0zh3vvvA8qC2KCgIPr178eWzVuuWt9oqNyciIDAstSs1JQUe1lRUREZGRkEBwfTsGFDUlNT7d/d6PsT4B+AzWbj5MmT9rJTF1fLcfcov4Rqevr5cr/n5GTjH+CP0VSNtVtFREREakG1R+pLskovN+JoxFpiJWHucU5/kVwW0Hf1rTCgByjNKb2irLIa+vnRq1fZ0oknE+IBeG7mTO686y5y83J57V+zmPzgg0RHb69y2ympKezatZPQ1q25++JE0JjoGHsKR02YzZYryqw261WPv/fe+3h4xgwCAgJ4772FTJs6lcWL369xP6JGjcLV1RWADh07EhERSUREJE5OTgCMunU0gP2th4ND+ec+X98GVEZOTm7Z8Q0vH28wGPDy8sZisXD69Olyx9/o+5Obk4vBYCAg4PI8Eb+LDwrnz6eX76ul+g+kIiIiIr+Gagf1RUkX7D8bTEZa/bEtbi3dSfsipSygf7xNhQG9+YIZc1b1gvrmzZszf8F8vLw82b9/H9u3lQXulzZ6mv2v2by3YAFr16whwP/6k3grsuLrFQDce999AKxZvbpa7dRUm7ZtAPji88956803WLVyJa7ONc/ZvpR68/zMmTRp3Nj+uf222wDsKThnz57FYrHQqFEjQkLKJjf7+vrSJaL8HIXCorJlId1c3TD9bKR6965dAEyYONG+Wdi06dNxd3cjLja2XKpUdVT2/pSWlADg7e1zzfb2XUz5efTxxwAwmUz8fvJkAGJjY2vUVxGRqjI4umFy8cHk7o+DR+Bv9jG5+2Ny8cXgqH08ROqbaqffXEjIL7fhlNHJROhf2nP+x3MEjAjCYKw4TaPgaF6F5VfTq1cvVqxaiX9AAI2CG2E0GklOTuLRGY9gsZSN7qadSSMsLIzpM2Yw4pYRNGvenMCg6uU3f/nlF/zt6b8TFhZGcXExX321/Lp1GjRowIpVK8uVPfzQNFJSU65S4/rOXExHGTkyCi8vLzw9PRn6i+Ugq8rLy9O+4dTKFSvKfbdr507S0tLsq+Bs3rSZPXt206NHT778+iu2bN5Mn759Mfwi/SYzI4PMjAz8/P3YsHEjFwoKmDt3Lp8uW8a0adPo1q0bO3btISPjPM2bN8dsNvPSSy/W6Dqg8vcnKTmZtu3asXjJElJSk9m+bRuvz3n9iuPeX7SQYcOGce+99zFs2HBcXV3x8fHhbNpZ5syeU+P+iohUhs1gwuTig9FUO3PPqspgMIKDEyYHJ6wmFyzFORhsV75JFZG6p9oj9ec3pFOSWX6HWJOricCRwVcN6G0WG2e+qFqg26BhQyIiIvH09CIhIYElSxYzZNBgEhIS7MfMmvVPEhMTGThoIPc/8AB5eXlMf3hq1S8KyMvL58cNZRNIt27Zap/keS1OTk72NJZLH2fXmo2qL35/Edu3baNd+3Y8OHkyrdu0Ydy4ceTnV23zrp+7tOrNvn37SEtLu+L7tWvXAJdXwXnyz0+ybt063N09uH3cOHbt3MUzf//bFfVeeP550tLSaNmyJR3DwykqKiQrK4u7x49ny+YteHp6EBQUxMEDB5h0z8Rr5uxXVmXvz9w5r3P40CH8A/yJiLj6UqBbt2xlyuTJxMfHExwcjM1qZfOmzYwdPZrMjIyr1hMRqS02Gzc0oP8lo4MjJpdrv+UUkbrD4OkbWO08CNfmbrR9MRyjQ+WeDZIWnuT8uqsvDVlXvPX224wZO5Y/PvFEjdanFxERqSyjkztGJ4/rH1hFQb3uwzWwPQnf/KVa9a0l+VhLqj+gJCK/jRoF9QCuLdxp8Viba+4say4wk7I4gcwt5696TF0RGBjIj5s2Y7GY6dWjOwUFF65fSUREpIaMLg0wOjhe/8DfmNVcirUo80Z3Q0Suo8bv+AoTCoh76idCJjXHq4sPTg2d7d+ZL5jJj8slZdEpSs4XX6OVG2/0mDE8OPlBmoQ0xdPTg9mvvaaAXkREfjOGqyyL2/L22diKL+AS3I6sI9/j1aIHF87EkrKhbL5PsxFP49YoHEtRDoXp8SSvnwPWUhzd/Wkx5iVMbr4UpZ8sN1If3GcyDm4NcfZpjIOrN8VZSZxc+QwGrhznu1q/RKRuqZXEPWuRlaQFZet7G12NuDRyoySzuNqr3NwI/v5lOdcnT57k3XffYf68eTe6SyIi8j/EYLhKKqvNRmHmKbJPRuPXKYqjS6fQ5ZH1pGyYg9HZk+LsFE6tfQkDNtresxDPppHkndpBaUE6xz6eQoOwKLxb9y/fpNWGR6OOHFs2FUtxPm3vWYRXs27kJe6qfL9EpE6p9dk41kIrF+KvP7mxFimBAAAgAElEQVS0rln43nssfO+9G90NERGRKxSln8BmtVJamIMBGzYsYDBhLc6jJDedJoP/iLW0EJOrDw6ulZvcmp+yD0tx2f+vS/LScXSv3lLQIlI31I0p9iIiInJVNmvZZny/XFvOrVFn/LqM4fiyGdisJbgHd6x0m1arlqoU+W+id2oiIiL1lFez7hSmn8RmLcHZpzGuAa1vdJdE5AbRSL2IiEg9lRW7hqYjnqXNhPkUpsdzdscHBPeZQmF6PA07RuHeqAMmN18cXL1pM2E+RRlJJH1X8w0ARaTuqfGSliIiIlJzWtJSRGpC6TciIiJ1gM1cN5dRrqv9EpHyFNSLiIjUATZzEVZz3VoK2mopxWYuutHdEJFKUFAvIiJSR1hLcrHZ6kZWrM1mw1qUe6O7ISKVpImyIiIidYXVjKXgHAZHN4wmZzA5/KabP9lsVrCUYrWUYCtV2o1IfaKgXkREpI6xlV7AoqBaRKpA6TciIiIiIvWcydnV47kb3YmKTLr3fu4cP4FBQ4bSOSKSJk2aUVCQT0529nXrPjB5Cn7+fpyMjye8cxceffwJdu/eSXFxcZXPPWjIUPr278+mjT/W9JIq7N+YsbcTNWoM0du3Vnhsv/4DmDJ1Ot4+3sTFHqn0OSK7dae4qIjCwsLa6vZ1+fj40rFTJ06npgIQ2roNDz40jZ/276WkpKRWz/XQwzM4fPAAbdq2o1OXCBJOxpf7/tbRY7h1zFiit227ZjvtwsK4c/wEuvfoRUTX7thsVs6cOV3hsQ4Ojjw780U2/ri+Rn3vf/MgOoaHc/zY0Wv3rV0Yo8aMZf++vVVq/9mZLxAdvQ2LRbtFioiI/K+o0+k36enprFrxNf7+AbRp244Hp0xlyfsLOXH82DXrbd+6lezsrFo5N4DVWruTlqrSvy4RkaSfO0eHDp1Y+c03mCuxMoLBYGBk1Cg+WfohmZm/3drCnbt0oU3b9uzeuROA1NRUNm5YT35+fq2fy9nJmaKiIkJCQkg8lVjuu46dOtPQz/+6bRgMBsbdcRcfLnmfpFOncHZ2xsPDo9b7KiIiIvJrq9NBfUlxEfEnjhN/4jgx0duY/ujj3DxwECeOH8NgMDBq9G20adsWJxdnTp44wVfLP6e4uJjhI24hJSWF5Z9/Wq696Y/+geKiQt6b/x8ABg0ZyoCbBzLr1Zcp+EXgeencPzfmtnG4urpiNBppFdqGjIx0Nqz7nj79+tOoUQgpKcl8tfxzsrOz8PHxZeSto2jRqhUF+QUcOXyI79euBrhq/36pceMQAoOC+ejDxUyY+H90DA+3j9recdcEgoICefPfrwMwbMRIunXvwcsvPMfDjzyGi4sL9/9+MgDP/O0pnJ2duCXqVtq0bY+DowOJpxL4fNknFBcX18p1hXfuwsBBQ3BwdOTFV2axedNG0tJOM3rsbRw7Gkd2dhbtwsK4eeBgAgMDycnJ4cf1P/DT/n24u3vw16efZfWqFXTv0RN3T0+OxsXx5eefXrEKRM9evWnUuBFWm5Whw4fTsXNnTA6OGIwG4mKP4OfnT5++/Vj+2TL+74Hf2+tNnjqdHTHbOLB/v73MZrPhYDKRdfHBp7i42P42x8nJid/dOR5/f388vLz44bu17Nm9G6vVwi1RowgJaYLJwcT+vXuJiS57G+Dm6sYto0YTGBiIg8nE+h/WcfjQQVzd3Bkz9jb8/QIoKirkQlEh2Vll57xt3O84d/Ys27ZuAaBP334EBAby1fIvrvj3EN65C7169cbD04Nz586xbOlHWCxmOnfuQt8BAyktLSXjfDo2m+Ga/65ERETkv0+9yqk/c/o0AUFBQFlAtnvXDj76YDHz33mLVq1bc1Pvvtesv2fXTpo1b2Efje3YsRPHjx+7IqAHaBzShBdfmcWLr8xi8kMP28s7hnciKfEUc+f8E09PL8ZPnERMTDRvvzmXFi1b0r1nDwCys7PYERPN3Nn/4ofv19J/wM00bdasStcb2a0bFy5cIO7IEZKTEomI7Fapel9fDAjfX7iAp//6JDablREjo2gV2ppPPv6QD5e8T1BQMIOHDq+16zr4037i40+QeOoUT//1SfsDzCU+Pr7cPeEeEk+d4t9zZnM0Lo6xt4/D3f3yyHiv3n356IPFrPz6KyIiIukQ3umKa9sRs52kpCT27dnNuu++w1JqZs23K4mLPYKDgwN3TZjI8s8+xWwun3qye+cOkhOTrmhv/Q/rmDx1GkOGDiekSVN7+S1RoyguKeGNuXN4aeY/2BETDYCTkzNJiadYMO8dPli0kFuionC4uAPk3fdM4tjRON5589+s+OZrom4djcFgYPDQoQC8+cYcPliyCH//gEr9HX+uRctQburdlw+XLOKN1+fg6OBIt+7d8fDwYMzt41j+2TLmv/sWqSkpODs7Vbl9ERERqd/q9Ej9L5lMJiwXgzX/wEBuHjSYkJAmeHl7A+DbwPea9ffu2cWwESPo0rUbcYcPExAYyPofvq/w2J+n3xT9LC+9qLCIrVs2A3A2LQ1XN1cOHzwAQEZGBt7eZX1o1z6Mm3r3pXFICC4uLgA0aNCQpMTyqSJXYzSZCA/vTOyRQwAcOXyI4bdE4eXtTW5OTqXa+LmWoaEci4sj6dQpAOLiYgkL68DqVSt+k+tq1SoUk8mBTRvWc6HwAj+uX0efvv1oFxZG3JGyuQJ7du0gIyODzMws7hxvw9e3QYVtNWzoR1LiKdzdPcql9oz73Z1s3byJ8+fT8fEp/29h397dFba1dfMmftq/l85dIpk46V727d3D92tX07x5c77/bm2F60UfOXwYgAuFF8jLy8Pb24uCggJatGyF0WiiV6/eAHh4euLp5UWzZi3s97m4uJgjhw7i6FS1reA7hHfEy8uTSfc+AICXtxeNQ5qQl5dHamoqaWlnANi1cwe3jh5TpbZFRESk/qtXQX2Tps3swcvQIcNp1qwZixctJC3tDH/485PXrV9SUsKhgwfp1Kkzri7OFBTkc/jQwYqPrSD9BuBCUYH9Z4vFjLnUbP/dajHb1xO+7fZxpKWd5Z0352K12vjTX/5apWsNC+uAm7s7Xbv1oGu3HvbyyK7d2LhhPTabtdzaxU7XGZ11MDpgNJrK/W7jcsD6a1+XyaHs3AaT8eLvZf/0fh405+flXyyzYrPZMBjKp5H4+PjSvWcPOnQMx9HRkfBOXXBwdGTo8OHsiIkhvHMXwjt34Y677rbXefGVWbz0/D+uOWE4LzePrZs3cTQujskPTSt7y2AwVljHbDaXreN86d5c/DuYTA5YLBYWzHungjPYsFgu38+SkpLLQf0vnhlMpor/kzQZTezbs+eKh9D2YR2w/mxCbNnfrm7tSCkiIiK/vjqdfuPk7EKr0NaEtm7N+An34O3txXdrvgXKgqn8vALOnTtHo0aN8fbyqVSbu3bGEBzciPbtO3Lgp/1XPe7SuVuFtqZFy9Aq991qg+ysTDIzM+nQsWOV60dEdqUgP4/3Fy6wf86cOU2XiK4A5OZk4+fvj5+fP07OTrRu3dZet6ioLBj19w/AyckJg8FIYuIp2rRtS+PGITRuHEKbtm2JP36iVq+ruLgYX19fjCaTfRT/koSEBKxWK/0HDMTDw4P+AwZiNps5eaLyfcjOzmLdd99htZj5duU3ZGacZ/u2raz77jtyc3J4+q9P2j+v/fMVMrMyePqvT1JYWEiH8E72NzqXODo5YTRdftAJCQkhL6ds98SkxATatrl8T52crv3QVFCQT1ZWJkN+ltJ06R4kJp6idZt29vKWrVrZf87NzcXfP9D+e/MWLStsPyEhnojIruXeQLi4uJCclEhQUJD9XM2at8DBsWpvAURERKT+q9Mj9f7+/tz3wIPk5uRy+kwq/3nnbdLOlI3Ub/xxPWNuG8fMF18mNvZIhaPqFUlOSiL93DkCAgP55OOPrnnuSxNNS0qKef4fz1Sp72tWr2TIsOE898LL7IiJJjur8qvxuHt4ENq6Ndu2bC53XdHbt3H7uDto2rw527dtJaxjJx7/459JP3eOkyeO23PQMzIy2BkTQ9So0QwdNoJ/vvoCK77+krvuvodpMx4lLzeXY8ePsnbNqipd0/Wua/vWLYQ0bcLzL77Cj+t/IP38Oft36efO8tXyzxk5ajS9brqJ06dPs2zph2RnZ5XLq78eHx9f+4o+jRqHsHdPxWk1v3TzwEFs37qFfXv32Mu8PD157Ik/k5dbti271Wbjs0+WAvDtqhWMv3sSU6ZOp6G/H9u3bGbb1oqXHb3kow8Wc/fdk+gcEYGzkzOxsYf5avkXrF+3jtFjxnLfA5MpNZdy/PhxvLw8AdixI5rJDz3Mo48/wfn08+Tl5kAF81wP7N9PgH8g0x97nNysHFzdXFn64RJSU1NYvWold46fgLOzM7FxsaSfO1upeyIiIiL/PQyevoG1u15jPXDn+An4BwTw9htzb3RXRERERERqrE6n39Q2X98GdAzvRFhYh1rdTEpERERE5Eaq0+k3tW3s7b+jVWgoMTHbOXTgpxvdHRERERGRWvE/mX4jIiIiIvLf5H8q/UZERERE5L+RgnoRERERkXpOQb2IiIiISD2noF5EREREpJ5TUC8iIiIiUs8pqBcRERERqecU1IuIiIiI1HMK6kVERERE6jkF9SIiIiIi9ZyCehERERGRek5BvYiIiIhIPaegXkRERESknlNQLyIiIiJSzymoFxERERGp5xxahLa+0X0QEREREZEaMHj6BtpudCdERERERKT6lH4jIiIiIlLPKagXEREREannFNSLiIiIiNRzCupFREREROo5BfUiIiIiIvWcgnoRERERkXpOQb2IiIiISD2noF5EREREpJ5TUC8iIiIiUs8pqBcRERERqecU1IuIiIiI1HMK6kVERERE6jkF9SIiIiIi9ZyCehERERGRek5BvYiIiIhIPaegXkRERESknlNQLyIiIiJSzymoFxERERGp5xTUi4iIiIjUc3U2qB8/YQLJqan2z+HYOFZ+u4rpMx7B09Ojyu3169+Pg4cP89IrL9vLklNT+enAgWr3sXHjxuX6+PNPq9DQardbWT4+PmyLjmbV6m/tZatWf0tyaiqdOnW+bv3FSz4gOTWVXXv2/JrdrHMqum8iIiIi9ZlDbTXk07sh3pG+uIa44RzkTElWKcXJFyg4nsfZ1WfAUr12MzMySExKxMvTi/DwTnTpEsHESROZNPEe4k+cqHQ77u4e+Pj4EBTcqHoduYaSkhIOHz5Urqy4sKjWz1ORwMBA3N3cqlzP09ODPn37YLFYCAoKom+/vmzdsrVafZj5wvMMGTKUPjfdVK36v6ZbRo5k/oIF9O3dm8TERHt5de+biIiISF1U46De6Gqk2dRQfHs2LFfuGuyAa7ArPj0a4tvPn4Q5RylOK65y+zExMTw0ZQpQFoi9Pvff9Ovfj1deeYU777ij0u2sXbOGSfdMJC42rsp9uJ7MzExG3zqq1tu9nuzsbO4Y9zuKi6v+ABE1ajQuLi6s/vZbRkZFMerW0dUO6gf0H1Cter+FIUOGXFFWk/smIiIiUhfVKP3G6Gqk3Sudrwjof8mtqTvtZ3XGtYV7TU7H2bNneXjaVHJycripd286hofbv3vk0UdZsWolh44c4XBsHB8t/Zju3bvbvx8ZFcWHHy3l5VdfrbDt12bPJjk1lX/MnFmu/L1Fi0hOTeWRRx+tVp+/Xb2ajZs2MWjwINZv2MDx+Hi2RUdzz6RJdOkSweo1azgeH8/GzZuZOm1aubqjRo/mk2WfsnvPXo7Hx7Nq9bfcceed9u+dnZ1ZsWolnyxbVuV+DR8+HIBFCxeRl5fPoCGDy31/KbVoW3R0ufI33nqL5NRUxk+YQEM/Pz78aCmtQkNp2rSpPfWoZ89eADT082Ph4sXs2/8Th2Pj+GTZpwwbOvQ3uz//mDmT28eNA2Dr9u0kp6byhyeeuOp9i4yMZMWqlcQdO86uPXv4z7x5tGzZ0v79yKgo+7XPnjOHvfv2czg2jsVLPqBN27ZV/huIiIiI1JYaBfUh97fAJcilcidyMtF8eig4GGpySrKzs4mJiQFg4MCB9vLevfvgHxDAunXrOJVwkgE3D+Dd/8zDrZIpFsuXLwdg8ODLwa2joyN9+vTFYrHw2aefVrvPLVq25N3/zMPHx5eSklKaNm3K0888y7/ffIMWLVuRm5NLq1at+PvTT9sDYoDQ0FDCO3fipwM/sWXLFsLDO/Ha7NlERkZWuy8AXl6e9O3bl/Pp59mxI4bomGiCgoLoP6B/ldrxcHcnJSUZgJycHN5bsID3FiwgLe0MJpOJzz77jGFDh+Ls4kJGxnn69uvLO/Pm0a9/v9/k/hQXFZKXlwfAxx8t5b0FC9i7t+L5A6GtW/PJp58SERFJTk42Li4uRN16Kx8vW0ZQUFC5Y5955ll+d8cd5Obl4unpweAhg5n1r39V6d6JiIiI1KZqB/XeXX3w6x9w3eOKzxdhs9kAcA1xo9FdTap7Sru0tDMABAYF2sv+/Kc/0btnL/7w2GNEjRzJwQMHCAwKJCIyolJtRm/fTmJiIi1atLC/ARg+YgQeHu7s3bOHs2fPXrVuUFBQuUmym7ZsKfe90Whk67ZtdI2MoF/fPpxNO4u7uxsWs5nevXrSq2cPdu3cCUCvmy4HrUuWLKF3zx78/v77eeC++1iyZDFGo5FBg8uPqldV1KhRuLi4sHVrWbrN5h83AnBrVNVSiBITE3nrzTeBsqB+5nPPMfO550hMTGTixHto07Yt+/btpWf3rvTv25d/zZqFs7Mzzz77XLl2fq378+orr5KVlQXAO++8zcznnmPTxk0VXsvjjz+Om5sbH334IT27dyeySxd++OEHGjduzB/+8ES5Y728PLnrzju5uX9/7rr4ZiAiIgIXl8o94IqIiIjUtmoH9X5Dg657TPbuTA4/uo/sHRn2Mv+hgdeoUTWlpWb7zykpyfaHB4CkpCQAAgMqf74V33wDwNixYwEYcjFVZO3atdesV1JSwr59e+2f2CNHrjjmq4tvAjIzMti/fx8AX3/9NVlZWZSWlrJt2zYA/Pz97HUyMzLIzc2z/56YUDbR09/Pv9LXVJHhw0YAsPHHDQB8u3oVNpuNgYMH1ajdn+vZqycAyz9fTl5ePgDz582jpKSEdu3bXREA3+j7E9mtKwAL5s8HoLS0lE+WLgUgvFN4uWMPHTxIzMW0pOjt20k/l47RaCQ4OLjK5xURERGpDdWeKOsUcO1Ryey9mZyccxSvzj54d2tgLze5OGDydMCSZ75G7WsLvriCzamTCQAEBATwl6eeokOHDjRv0RJ39+qtavLxR0uZ8cgjDB48mJdefJGbBwzAbDbz+WefXbNeZSbKpp05Y/8592JKSHZWtr0sP78s8DUay56zDAYDTz31FD169aJF8+Y09POjNnh5edK7T28AJk+Zwr333weUBbFBQUH069+PLZu3XLW+0VC59KmAwLK3OKkpKfayoqIiMjIyCA4OpmHDhqSmptq/u9H3J8A/AJvNxsmTJ+1lpy6uluPuUX4J1fT08+V+z8nJxj/AH6PJVKM+iIiIiFRXtUfqnRo42n+2FJmJnx1H9t5MALJ2ZHDytaN4R/jQ6k/tMDqUP41TQ6fqnpaGfn706lW2dOLJhHgAnps5kzvvuovcvFxe+9csJj/4INHR26vcdkpqCrt27SS0dWvuvjgRNCY6xp7CURNm85Vrelpt1qsef++99/HwjBkEBATw3nsLmTZ1KosXv1/jfkSNGoWrqysAHTp2JCIikoiISJycyv4mo24dDWB/6+HgUP65z9e3AZWRk5NbdnzDy8cbDAa8vLyxWCycPn263PE3+v7k5uRiMBgICLicUuZ38UHh/Pn08n21VP+BVEREROTXUO2gviSr9HIjjkasJVYS5h7n9BfJJPz7GN5dfWn5RDsMpitHdktzSq8oq4zmzZszf8F8vLw82b9/H9u3lQXulzZ6mv2v2by3YAFr16whwP/6+f4VWfH1CgDuve8+ANasXl2tdmqqTds2AHzx+ee89eYbrFq5ElfnmudsX0q9eX7mTJo0bmz/3H7bbQD2FJyzZ89isVho1KgRISFl8yB8fX3pElF+jkJhUdmykG6ubph+NlK9e9cuACZMnGjfLGza9Om4u7sRFxtbLlWqOip7f0pLSgDw9va5Znv7Lqb8PPr4YwCYTCZ+P3kyALGxsTXqq4hIVRkc3TC5+GBy98fBI/A3+5jc/TG5+GJw1D4eIvVNtdNvipIu4BpcNuJrMBlp9ce2HH85lrQvUvDu7kvLx9tUGNCbL5gxZ1U+qO/VqxcrVq3EPyCARsGNMBqNJCcn8eiMR7BYykZ3086kERYWxvQZMxhxywiaNW9OYFD18pu//PIL/vb03wkLC6O4uJivvlp+3ToNGjRgxaqV5coefmgaKakpV6lxfWcupqOMHBmFl5cXnp6eDP3FcpBV5eXlad9wauWKFeW+27VzJ2lpafZVcDZv2syePbvp0aMnX379FVs2b6ZP374YfpF+k5mRQWZGBn7+fmzYuJELBQXMnTuXT5ctY9q0aXTr1o0du/aQkXGe5s2bYzabeemlF2t0HVD5+5OUnEzbdu1YvGQJKanJbN+2jdfnvH7Fce8vWsiwYcO49977GDZsOK6urvj4+HA27SxzZs+pcX9FRCrDZjBhcvHBaKq1vSGrxGAwgoMTJgcnrCYXLMU5GGzV3D1SRH5T1R6pv5CQX74hJxOhf2lP4/9rTss/tMVgqrjpgqN5FZZfTYOGDYmIiMTT04uEhASWLFnMkEGDSUhIsB8za9Y/SUxMZOCggdz/wAPk5eUx/eGpVb8oIC8vnx83lE0g3bplq32S57U4OTnZ01gufZxdazaqvvj9RWzfto127dvx4OTJtG7ThnHjxpGfX1DtNi+terNv3z7S0tKu+H7t2jXA5VVwnvzzk6xbtw53dw9uHzeOXTt38czf/3ZFvReef560tDRatmxJx/BwiooKycrK4u7x49myeQuenh4EBQVx8MABJt0z8Zo5+5VV2fszd87rHD50CP8AfyIirr4U6NYtW5kyeTLx8fEEBwdjs1rZvGkzY0ePJjMj46r1RERqi83GDQ3of8no4IjJ5dpvOUWk7jB4+gZWKw/C5OVI+1fDcWrgXOk6NouNo88e4kL89QPlG+mtt99mzNix/PGJJ2q0Pr2IiEhlGZ3cMTp5XP/A35i1JB9rSfUHlETkt1HtkXpLbinxs+Kwmq8+mfGXkhcn1PmAPjAwkEGDh5Cdnc23v0ipERER+dUYKz9IVhVBve6jxZh/Vr+BX6lfIlK7avSOr/DUBY4+c4gWj7W55s6y5gIzKYsTyNxy/qrH3Gijx4zhwckP0iSkKZ6eHsx+7TUKCi7c6G6JiMj/CMOvtCxuWsziGtX/tfolIrWrxol7hQkFxD31EyGTmuPVxQenhpef6M0XzOTH5ZKy6BQl54treqpflb9/Wc71yZMneffdd5g/b96N7pKIiPwPMRgqfnne8vbZ2Iov4BLcjqwj3+PVogcXzsSSsqFsEn+zEU/j1igcS1EOhenxJK+fA9ZSHN39aTHmJUxuvhSlnyThm7/Y2wzuMxkHt4Y4+zTGwdWb4qwkTq58BgNXZuRerV8iUrdUO6f+aoyuRlwauVGSWVylVW5ERET+lzl4VLwDesvbXuNCWizF2Wfw6xTFsU9n0OWR9fz05iCMzp4ERIzjTMwSDNhoe89CTm+dT96pHfb6DcKi8G7dv1xQH3TTg/i2uZljy6ZiKc6n7T2LOL3lXfISd1XYB3P+2dq9WBGpdbU+xd5aaK3zefMiIiL1SVH6CWxWK6WFORiwYcMCBhPW4jxKctNpMviPWEsLMbn64OBauRVr8lP2YSku+/91SV46ju7V299FROqGurFuloiIiFyVzVq2KMUvd39xa9QZvy5jOL5sBjZrCe7BHSvdptWq9edF/psoUU5ERKSe8mrWncL0k9isJTj7NMY1oPWN7pKI3CAaqRcREamnsmLX0HTEs7SZMJ/C9HjO7viA4D5TKEyPp2HHKNwbdcDk5ouDqzdtJsynKCOJpO9qvqu3iNQ9tT5RVkRERKrO6NIAo4Pjje7GFazmUqxFmTe6GyJyHUq/ERERqQNs5rq5N0pd7ZeIlKegXkREpA6wmYuwmuvWUtBWSyk2c9GN7oaIVIKCehERkTrCWpKLzVY3smJtNhvWotwb3Q0RqSRNlBWR/2/vvsOjqtIHjn9nJsmkF8hkAgklpEFIp4Xea6QrUn+WFQVRLLu6uquuKCsuroiNXUUQBARFBOlIhzR6DQRCSCGBkJCeQCaZ8vsjMBAJkIQIift+nmeeZ+bOPeXeCfree99zjhCivjDqMZRkobC0RalSg8riga7oajIZwVCO0VCGqVzSboRoSCSoF0IIIeoZU/lVDBJUCyFqQKW2sX/3YXeiKpOeeIoxY8fTp19/QsLCadasBSUlxRTk59+z7NOTn8VV48r5pCSCQkKZ/vKrHDy4H51OV+O2+/TrT7cePdi9a+f9HlKV/Rs+YhSRQ4cTGxNV5b7de/Tk2SnTcHJ2IuH0qWq3Ed6+A7rSUq5du1ZX3b4nZ2cXAoODuZiRAYCPrx/PPDeVY0cPU1ZWVqdtPff8C8SfOI6ff2uCQ8NIPp+Er58fo0ePoWNEZ8LbdcC9SVPOJyVV3Hm6g9YBAYwZO54OHSMIa9cBk8nIpUsXq9zXwsKSd2bMZNfO7ffV9x69+hAYFETi2TN33a916wCGDh/B0SOHa1T/OzPeJzY2GoNBFpYRQggh/lfU6zv12dnZrF+7Bo3GDT//1jzz7BQWf7uAc4ln71ouJiqK/Py8OmkbwGis2/zGmvQvNCyc7Kws2rYNZt0vv6CvxiAqhULBkMihLF+2hNzcBzcNWUhoKH7+bTi4fz8AGRkZ7NqxneLi4jpvS22lprS0FE9PT1JTUvKGOwAAACAASURBVAEoKipi9c8/ceVKNgDPPDsF/9atORV/sso6FAoFox97nCWLvyUtJQW1Wo29vX2d91UIIYQQ4vdWr4P6Ml0pSecSSTqXSFxsNNOmv0yv3n04l3gWhULB0GEj8fP3x8pazflz51i9aiU6nY6BgwaTnp7OqpU/VKpv2vRX0JVe45uv/wtAn3796dmrN7M//ICS3wSeN9q+1fCRo7GxsUGpVOLt40dOTjY7tv5K1+49aNrUk/T0C6xetZL8/DycnV0Y8shQvLy9KSku4VT8SX7dvBHgjv37LQ8PT7TuTVi6ZBHjJ/wfgUFB5ru2jz0+Hnd3LZ9/+gkAAwYNoX2Hjnzw/rs8/+JLWFtb89SfJgPw9t/eQK22YnDkI/j5t8HC0oLUlGRWrliOTqerk+MKCgmld59+WFhaMnPWbPbs3kVm5kWGjRjJ2TMJ5Ofn0ToggF69+6LVaikoKGDn9m0cO3oEOzt73nzrHTauX0uHjp2wc3DgTEICP6/84bYBY50iutDUoylGk5H+AwcSGBKCysIShVJR6UlG48aNcXV1Iy+v4uJp8pRp7IuL5vjRo+Z9TCYTFioVedcvfHQ6nflpjpWVFY+OGYtGo8He0ZFtWzZz6OBBjEYDgyOH4unZDJWFiqOHDxMXGw2ArY0tg4cOQ6vVYqFSsX3bVuJPnsDG1o7hI0aicXWjtPQaV0uvkZ9X0ebI0Y+Sdfky0VF7AejarTtuWi2rV/10299DUEgoERFdsHewJysrixXLlmIw6AkJCaVbz96Ul5eTcyUbk+m3C8kLIYQQ4o+uQc1+c+niRdzc3YGKgOzggX0s/W4RX8/7Am9fXzp36XbX8ocO7KdFSy/z3djAwGASE8/eFtADeHg2Y+as2cycNZvJzz1v3h4YFExaagpz5/wLBwdHxk6YRFxcLF9+PhevVq3o0KkjAPn5eeyLi2Xuxx+x7dfN9OjZi+YtWtToeMPbt+fq1asknDrFhbRUwsLbV6vcmusB4bcL5vPWm69jMhkZNCQSbx9fln+/hCWLv8XdvQl9+w+ss+M6cewoSUnnSE1J4a03XzdfwNzg7OzCuPETSU1J4dM5H3MmIYERo0ZjZ3fzznhEl24s/W4R69asJiwsnLZBwbcd2764GNLS0jhy6CBbt2zBUK5n04Z15oC+b78BzJw1m+mv/Jkd27dy6WJFKtDB/fu4kJp2W33bt21l8pSp9Os/EM9mzc3bB0cORVdWxmdz5/DPGf9gX1wsAFZWatJSU5j/1Ty+W7iAwZGRWFxfLGbcxEmcPZPAvM8/Ze0va4h8ZBgKhYK+/fsD8Plnc/hu8UI0Grdq/Y638mrlQ+cu3ViyeCGffTIHSwtL2nfogL29PcNHjWbVjyv4+j9fkJGejlptVeP6hRBCCNGw1es79b+lUqkw6CvyhDVaLb369MXTsxmOTk4AuDRyuWv5w4cOMGDQIELbtSchPh43rZbt236tct9b029Kb8lLL71WStTePQBczszExtaG+BPHAcjJycHJqaIPrdsE0LlLNzw8PbG2tgagUaPGpKWmVutYlSoVQUEhnD5VkTpyKv4kAwdH4ujkRGFBQbXquFUrHx/OJiSQlpICQELCaQIC2rJx/doHclze3j6oVBbs3rGdq9eusnP7Vrp2607rgAASTlUE5IcO7CMnJ4fc3DzGjDXh4tKoyroaN3YlLTUFOzv721J7tm/7ld27dqB1d2f4iNEUFhWQcOoURw4frLKuqD27OXb0MCGh4UyY9ARHDh/i180badmyJb9u2Vzl1HKn4uMBuHrtKkVFRTg5OVJSUoJXK2+UShUREV0AsHdwwMHRkRYtvMznWafTcerkCSytarZqZNugQBwdHZj0xNMAODo54uHZjKKiIjIyMsjMvATAgf37eGTY8BrVLYQQQoiGr0EF9c2atzAHL/37DaRFixYsWriAzMxLvPLa6/csX1ZWxskTJwgODsHGWk1JSTHxJ09UvW8V6TcAV0tLzO8NBj36cr35s9GgN089NnLUaDIzLzPv87kYjSb+8tc3a3SsAQFtsbWzo137jrRr39G8Pbxde3bt2I7JZKw0zZnVPe7OWigtUCpVlT6buBmw/t7HpbKoaFuhUl7/XPGnd2vQXFxUfH2bEZPJhEJROY3E2dmFDp060jYwCEtLS4KCQ7GwtKT/wIHExcZQVFgEgF6vJyM9nVPxJ2nduo35ouFOigqLiNqzmzMJCUx+bmrFUwaFsspBxnq9vtLAW+P130GlssBgMDD/q3lVtGDCYLh5PsvKym4G9b+5ZlCpqv4nqVKqOHLo0G0XoW0C2mK8ZUBsxW9XvxavEUIIIcTvr16n31iprfH28cXH15ex4yfi5OTIlk0bgIpgqriohKysLJo29cDJ0bladR7YH0eTJk1p0yaQ48eO3nG/G217+/ji1cqnxn03miA/L5fc3FzaBgbWuHxYeDtKiov4dsF88+vSpYuEhrUDoLAgH1eNBldXDVZqK3x9/c1lS0srglGNxg0rKysUCiWpqSn4+fvj4eGJh4cnfv7+JCWeq9Pj0ul0uLi4oFSpzHfxb0hOTsZoNNKjZ2/s7e3p0bM3er2e8+eq34f8/Dy2btmC0aBnw7pfyM25Qkx0FFu3bKGosAhvbx8srl8sqNVqfHx9zTPxtA0KNj/RucHSygql6uaFjqenJ0UFFQutpKUm4+9385xaWd39oqmkpJi8vFz63ZLSdOMcpKam4OvX2ry9lbe3+X1hYSEajdb8uaVXqyrrT05OIiy8Hc7ON59GWVtbcyEtFXd3d3NbLVp6YWFZs6cAQgghhGj46vWdeo1Gw5NPP0NhQSEXL2Xw33lfknmp4k79rp3bGT5yNDNmfsDp06eqvKtelQtpaWRnZeGm1bL8+6V3bfvGQNOyMh3v/ePtGvV908Z19BswkHff/4B9cbHk51V/Nh47e3t8fH2J3run0nHFxkQzavRjNG/ZkpjoKAICg3n5z6+RnZXF+XOJ5hz0nJwc9sfFETl0GP0HDOJfH77P2jU/8/i4iUx9YTpFhYWcTTzD5k3ra3RM9zqumKi9eDZvxnszZ7Fz+zayr2SZv8vOuszqVSsZMnQYEZ07c/HiRVYsW0J+fl6lvPp7cXZ2Mc/o09TDk8OHbqbVeHn7MG7i/1UM6HVy4fDhg+zfFwdAr959iInay5HDh8z7Ozo48NKrr1FUWLGCo9Fk4sflywDYsH4tY8dN4tkp02iscSVm7x6io6qedvSGpd8tYty4SYSEhaG2UnP6dDyrV/3E9q1bGTZ8BE8+PZlyfTmJiYk4OjoAsG9fLJOfe57pL7/KlewrFBUWQBXjXI8fPYqbRsu0l16mMK8AG1sbli1ZTEZGOhvXr2PM2PGo1WpOJ5wmO+tytc+nEEIIIf4YFA4u2vqxHvUDNGbseDRubnz52dyH3RUhhBBCCCHuW71Ov6lrLi6NCAwKJiCgbZ0uJiWEEEIIIcTDVK/Tb+raiFGP4u3jQ1xcDCePH3vY3RFCCCGEEKJO/E+m3wghhBBCCPFH8j+VfiOEEEIIIcQfkQT1QgghhBBCNHAS1AshhBBCCNHASVAvhBBCCCFEAydBvRBCCCGEEA2cBPVCCCGEEEI0cBLUCyGEEEII0cBJUC+EEEIIIUQDJ0G9EEIIIYQQDZwE9UIIIYQQQjRwEtQLIYQQQgjRwElQL4QQQgghRAMnQb0QQgghhBANnAT1QgghhBBCNHAS1AshhBBCCNHAWXj5+D7sPgghhBBCCCHug8LBRWt62J0QQgghhBBC1J6k3wghhBBCCNHASVAvhBBCCCFEAydBvRBCCCGEEA2cBPVCCCGEEEI0cBLUCyGEEEII0cBJUC+EEEIIIUQDJ0G9EEIIIYQQDZwE9UIIIYQQQjRwEtQLIYQQQgjRwElQL4QQQgghRAMnQb0QQgghhBANnAT1QgghhBBCNHAS1AshhBBCCNHASVAvhBBCCCFEAydBvRBCCCGEEA2cBPVCCCGEEEI0cBLUCyGEEEII0cBJUC+EEEIIIUQDJ0G9EEIIIYQQDVydBfXOXRrT4gUfWn8YTMiiDrT5JJRWr/qhHdoEVDWvb+z48VzIyDC/4k8nsG7Deqa98CIODvY1rq97j+6ciI/nn7M+MG+7kJHBsePHa9656zw8PCr18daXt49PreutLmdnZ6JjY1m/cYN52/qNG7iQkUFwcMg9yy9a/B0XMjI4cOjQ79nNeqeq8yaEEEII0ZBZ3G8FShslLab44NKpcaXtNk0ssGlig3PHxrh015A85wy6TF2N68/NySE1LRVHB0eCgoIJDQ1jwqQJTJowkaRz56pdj52dPc7Ozrg3aVrjPtxLWVkZ8fEnK23TXSut83aqotVqsbO1rXE5Bwd7unbrisFgwN3dnW7duxG1N6pWfZjx/nv069efrp0716r872nwkCF8PX8+3bp0ITU11by9tudNCCGEEKI+uq+gXmmjpPWsEKzdre+6n21zO9rMDuHMP+K5llxSozbi4uJ47tlngYpA7JO5n9K9R3dmzZrFmMceq3Y9mzdtYtLECSScTqhR+9WRm5vLsEeG1nm995Kfn89jox9Fp6v5BUTk0GFYW1uzccMGhkRGMvSRYbUO6nv26Fmrcg9Cv379btt2P+dNCCGEEKI+uq/0G8+nvO4Z0JsbslLRcpoPWChq3d7ly5d5fuoUCgoK6NylC4FBQebvXpw+nbXr13Hy1CniTyewdNn3dOjQwfz9kMhIlixdxgcfflhl3f/++GMuZGTwjxkzKm3/ZuFCLmRk8OL06bXq84aNG9m1ezd9+vZh+44dJCYlER0by8RJkwgNDWPjpk0kJiWxa88epkydWqns0GHDWL7iBw4eOkxiUhLrN27gsTFjzN+r1WrWrl/H8hUratyvgQMHArBwwUKKiorp069vpe9vpBZFx8ZW2v7ZF19wISODsePH09jVlSVLl+Ht40Pz5s3NqUedOkUA0NjVlQWLFnHk6DHiTyewfMUPDOjf/4Gdn3/MmMGo0aMBiIqJ4UJGBq+8+uodz1t4eDhr168j4WwiBw4d4r9ffUWrVq3M3w+JjDQf+8dz5nD4yFHiTyewaPF3+Pn71/g3EEIIIYSoK7UO6p3aOePaw+2e++mulGIymQCw8bSl6ePNatskUHGXNS4uDoDevXubt3fp0hWNmxtbt24lJfk8PXv15D///QrbaqZYrFq1CoC+fW8Gt5aWlnTt2g2DwcCPP/xQ6z57tWrFf/77Fc7OLpSVldO8eXPeevsdPv38M7xaeVNYUIi3tzd/f+stc0AM4OPjQ1BIMMeOH2Pv3r0EBQXz748/Jjw8vNZ9AXB0dKBbt25cyb7Cvn1xxMbF4u7uTo+ePWpUj72dHenpFwAoKCjgm/nz+Wb+fDIzL6FSqfjxxx8Z0L8/amtrcnKu0K17N+Z99RXde3R/IOdHV3qNoqIiAL5fuoxv5s/n8OGqxw/4+Pqy/IcfCAsLp6AgH2trayIfeYTvV6zA3d290r5vv/0Ojz72GIVFhTg42NO3X19mf/RRjc6dEEIIIURdqnVQ79rf/Z775B/MJX76EfL35Zi3afpra9ukWWbmJQC07jfreu0vf6FLpwheeeklIocM4cTx42jdtYSFh1WrztiYGFJTU/Hy8jI/ARg4aBD29nYcPnSIy5cv37Gsu7t7pUGyu/furfS9UqkkKjqaduFhdO/WlcuZl7Gzs8Wg19MlohMRnTpyYP9+ACI63wxaFy9eTJdOHfnTU0/x9JNPsnjxIpRKJX36Vr6rXlORQ4dibW1NVFRFus2enbsAeCSyZilEqampfPH550BFUD/j3XeZ8e67pKamMmHCRPz8/Tly5DCdOrSjR7dufDR7Nmq1mnfeebdSPb/X+flw1ofk5eUBMG/el8x4911279pd5bG8/PLL2NrasnTJEjp16EB4aCjbtm3Dw8ODV155tdK+jo4OPD5mDL169ODx608GwsLCsLau3lMrIYQQQoi6Vuug3srt7gFM/uFczs85g2OIM07tG5m3q6wtUDnc9/hcAMrL9eb36ekXzE8EANLS0gDQulX/ImLtL78AMGLECAD6XU8V2bx5813LlZWVceTIYfPr9KlTt+2z+vqTgNycHI4ePQLAmjVryMvLo7y8nOjoaABcNa7mMrk5ORQWFpk/pyZXDPTUuGqqfUxVGThgEAC7du4AYMPG9ZhMJnr37XNf9d6qU0QnAFatXEVRUTEAX3/1FWVlZbRu0/q2APhhn5/w9u0AmP/11wCUl5ezfNkyAIKCgyrte/LECeKupyXFxsSQnZWNUqmkSZMmNW5XCCGEEKIu1Dq6tmpkaX5vKNWT8uU5Gvd2wzm8EXn7ckj+9CxOYc60erU1ClXlPHqrxlZcK9L/tspqa3J9BpuU88kAuLm58dc33qBt27a09GqFnV3tZjX5fukyXnjxRfr27cs/Z86kV8+e6PV6Vv74413LVWegbOalS+b3hddTQvLz8s3biosrAl+lsuI6S6FQ8MYbb9AxIgKvli1p7OpKXXB0dKBL1y4ATH72WZ546kmgIoh1d3ene4/u7N2z947llYrqjYlw01akZmWkp5u3lZaWkpOTQ5MmTWjcuDEZGRnm7x72+XHTuGEymTh//rx5W8r12XLs7CtPoZqdfaXS54KCfDRuGpSqWszdKoQQQghRB2od1JfllWPTpKK40lKJscxI8txEtMOakvlzOk7tXGj1sv9tAT1AeUF5rTvc2NWViIiKqRPPJycB8O6MGQwdNozY2Bj+/dFs0tPTefpPT9O5c5ca1Z2ekc6BA/vp2LET464PBI3aG2VO4bgfer3htm1Gk/GO+z/xxJM8/8ILpKWl8c03C0hJSaZTRCeefPKp++pH5NCh2NjYANA2MPC274c+Moy9e/aan3pYWFT+E3FxaXRbmaoUFBRW7N/45v4KhQJHRycMBgMXL16stP/DPj+FBYVo3DS4ubmRlZUFgOv1C4UrV7Ir99VQ+wtSIYSoDoWlLUqVFagsUSge3DqRJpMRDHqMBh2m8qsPrF0hxP2r9X8pStNu/mNXqJR4/9kf21Z2ZP50I6D3qzKg11/Vo8+rXVDfsmVLvp7/NY6ODhw9eoSY6BgA80JPH3/0Md/Mn8/mTZtw09x7EG9V1q5ZC8ATTz4JwKaNG2tVz/3y8/cD4KeVK/ni889Yv24dNur7z9m+kXrz3owZNPPwML9GjRwJYE7BuXz5MgaDgaZNm+LpWTG42cXFhdCwymMUrpVWTAtpa2OL6pY71QcPHABg/IQJ5sXCpk6bhp2dLQmnT1dKlaqN6p6f8rIyAJycnO9a35HrKT/TX34JAJVKxZ8mTwbg9OnT99VXIYSoLpNChdKmMSq1AwoL9QMN6AEUCiUKCytUageU1o0wKeQJpBANRa3v1F9NLq604JTSSoXPX9twZWcWboPcUSirTtMoOVNU5fY7iYiIYO36dWjc3GjapClKpZILF9KY/sKLGAwVd3czL2USEBDAtBdeYNDgQbRo2RKte+3ym3/++Sf+9tbfCQgIQKfTsXr1qnuWadSoEWvXr6u07fnnppKekX6HEvd26Xo6ypAhkTg6OuLg4ED/30wHWVOOjg7mBafWrV1b6bsD+/eTmZlpngVnz+49HDp0kI4dO/HzmtXs3bOHrt26ofhN+k1uTg65OTm4alzZsWsXV0tKmDt3Lj+sWMHUqVNp3749+w4cIifnCi1btkSv1/PPf868r+OA6p+ftAsX8G/dmkWLF5OecYGY6Gg+mfPJbft9u3ABAwYM4IknnmTAgIHY2Njg7OzM5czLzPl4zn33Vwgh7sVkApWNM0pV3Yw7u19KC0tQOGO8lnPvnYUQD12tbwFc2ZFNWW7lFWJVNiq0Q5rcMaA3GUxc+qlmgW6jxo0JCwvHwcGR5ORkFi9eRL8+fUlOTjbvM3v2v0hNTaV3n9489fTTFBUVMe35KTU/KKCoqJidOyoGkEbtjTIP8rwbKysrwsLCK73UNvd3V33RtwuJiY6mdZvWPDN5Mr5+fowePZri4pot3nWrG7PeHDlyhMzMzNu+37x5E3BzFpzXX3udrVu3Ymdnz6jRozmw/wBv//1vt5V7/733yMzMpFWrVgQGBVFaeo28vDzGjR3L3j17cXCwx93dnRPHjzNp4oS75uxXV3XPz9w5nxB/8iQaNw1hYXeeCjRqbxTPTp5MUlISTZo0wWQ0smf3HkYMG0ZujvwPTQjx+1Op7epNQH+DUmWB0sruYXdDCFENCgcXba3zIGxa2uI/MwilRfWuDdIWnOfK1jtPDVlffPHllwwfMYI/v/rqfc1PL4QQQlSX0rpRxd3xOmbnHoT36I84/uWgWpU36ssxlubWca+EEHXtvoJ6ABsvO7xe8rvryrL6Ej3pi5LJ3XvljvvUF1qtlp2792Aw6Ino2IGSEhkoJIQQ4venstM88Bz66jCZjBhKsu+9oxDiobrv53zXkktIeOMYnpNa4hjqjFVjtfk7/VU9xQmFpC9MoeyK7i61PHzDhg/nmcnP0MyzOQ4O9nz8739LQC+EEOKBuVNAr+0wEfvm7VA7aClIjkPduAUW1g6cXTENjOW4hj6Kpt0YDKUF6K8WkL79Y8oKK8YdeQ3/F1YObqidmlS6U9+k62QsbBujdvbAwsYJXV4a59e9jYLb7/PVxwsNIcTt6iR5z1hqJG1+xfzeShsl1k1tKcvV1XqWm4dBo6nIuT5//jz/+c88vv7qq4fdJSGEEAKTyYhSZcnZH6cT+OzPHP20N75jvsBW68/VSydRWdmS+P0U9NdyadrzBVxDR3JxzzwAkn/5K5Z2Gto8uaRynUYT9k0DObtiCgZdMf4TF+LYoj1FqQcexiEKIepAnY/IMV4zcjXp3oNL65sF33zDgm++edjdEEIIIW5z7cp5DLoiDGXFYDJgKCvBwtoBgJKLJ9F2nAiArbs/uvyMu1VlVpx+BIOu4v/XZUXZWNrVbipoIUT9IM/UhBBCiHrOdGMxvt+s8aGwUNNiyNtkHfqBjN2fUZx+tNp1Go23L/onhGi4JKgXQgghGihbbWuMhnLKiy+jUKlx9Or8sLskhHhI6teEuEIIIYSotpJLpyjNPof/hG/Q64rJjF5A88F/p1HbSExGE5qwESiUlqisHfAb/zUAiSteeMi9FkL8Hu57SkshhBBC3L/fa576+yXz1AvRMEj6jRBCCFEPmPT1cxrl+tovIURlEtQLIYQQ9YBJX4pRX7+mgjYayjHpSx92N4QQ1SBBvRBCCFFPGMsKMZnqR1asyWTCWFr4sLshhKgmGSgrhBBC1BdGPYaSLBSWtihValBZPNAVXU0mIxjKMRrKMJVL2o0QDYkE9UIIIUQ9Yyq/ikGCaiFEDajUNvbvPuxOVGXSE08xZux4+vTrT0hYOM2ataCkpJiC/Px7ln168rO4alw5n5REUEgo019+lYMH96PT6Wrcdp9+/enWowe7d+2830Oqsn/DR4wicuhwYmOiqty3e4+ePDtlGk7OTiScPlXtNsLbd0BXWsq1a9fqqtv35OzsQmBwMBczKlYz9PH145nnpnLs6GHKysrqtK3nnn+B+BPH8fNvTXBoGMnnk3Bv0oQx48bTMaIzEZ274uzsxPmkpLvW0zoggDFjx9OhYwRh7TpgMhm5dOlilftaWFjyzoyZ7Nq5/b763qNXHwKDgkg8e+bufWsdwNDhIzh65HCN6n9nxvvExkZjMMjCMkIIIcT/inp9pz47O5v1a9eg0bjh59+aZ56dwuJvF3Au8exdy8VERZGfn1cnbQMYjXWb31iT/oWGhZOdlUXbtsGs++UX9NUYRKVQKBgSOZTly5aQm/vgpiELCQ3Fz78NB/fvByAjI4NdO7ZTXFxc522prdSUlpbi6elJakqqefuWjRvJyEjHzt6eF6a/wtkzZ0lNSa6yDoVCwejHHmfJ4m9JS0lBrVZjb29f530VQgghhPi91eugvkxXStK5RJLOJRIXG8206S/Tq3cfziWeRaFQMHTYSPz8/bGyVnP+3DlWr1qJTqdj4KDBpKens2rlD5Xqmzb9FXSl1/jm6/8C0Kdff3r26s3sDz+g5DeB5422bzV85GhsbGxQKpV4+/iRk5PNjq2/0rV7D5o29SQ9/QKrV60kPz8PZ2cXhjwyFC9vb0qKSzgVf5JfN28EuGP/fsvDwxOtexOWLlnE+An/R2BQkPmu7WOPj8fdXcvnn34CwIBBQ2jfoSMfvP8uz7/4EtbW1jz1p8kAvP23N1CrrRgc+Qh+/m2wsLQgNSWZlSuWo9Pp6uS4gkJC6d2nHxaWlsycNZs9u3eRmXmRYSNGcvZMAvn5ebQOCKBX775otVoKCgrYuX0bx44ewc7OnjffeoeN69fSoWMn7BwcOJOQwM8rf7htwFiniC409WiK0WSk/8CBBIaEoLKwRKFUVHqSUVJcTNblTKysrACYPGUa++KiOX705hLqJpMJC5WKvOsXPjqdzvw0x8rKikfHjEWj0WDv6Mi2LZs5dPAgRqOBwZFD8fRshspCxdHDh4mLjQbA1saWwUOHodVqsVCp2L5tK/EnT2Bja8fwESPRuLpRWnqNq6XXyM+raHPk6EfJunyZ6Ki9AHTt1h03rZbVq3667e8hKCSUiIgu2DvYk5WVxYplSzEY9ISEhNKtZ2/Ky8vJuZKNyaS469+VEEIIIf54GtTsN5cuXsTN3R2oCMgOHtjH0u8W8fW8L/D29aVzl253LX/owH5atPQy340NDAwmMfHsbQE9gIdnM2bOms3MWbOZ/Nzz5u2BQcGkpaYwd86/cHBwZOyEScTFxfLl53PxatWKDp06ApCfn8e+uFjmfvwR237dTI+evWjeokWNjje8fXuuXr1KwqlTXEhLJSy8fbXKrbkeEH67YD5vvfk6JpORQUMi8fbxZfn3S1iy+Fvc3ZvQt//AOjuuE8eOkpR0jtSUFN56FjoHUwAAB7BJREFU83XzBcwNzs4ujBs/kdSUFD6d8zFnEhIYMWo0dnY374xHdOnG0u8WsW7NasLCwmkbFHzbse2LiyEtLY0jhw6ydcsWDOV6Nm1Yd1tqkqOTE45OzqQknwfg4P59XEhNu62+7du2MnnKVPr1H4hns+bm7YMjh6IrK+OzuXP454x/sC8uFgArKzVpqSnM/2oe3y1cwODISCyuLxYzbuIkzp5JYN7nn7L2lzVEPjIMhUJB3/79Afj8szl8t3ghGo1btX7HW3m18qFzl24sWbyQzz6Zg6WFJe07dMDe3p7ho0az6scVfP2fL8hIT0ettqpx/UIIIYRo2Or1nfrfUqlUGPQVecIarZZeffri6dkMRycnAFwaudy1/OFDBxgwaBCh7dqTEB+Pm1bL9m2/Vrnvrek3pbfkpZdeKyVq7x4ALmdmYmNrQ/yJ4wDk5OTg5FTRh9ZtAujcpRsenp5YW1sD0KhRY9JSU6kOpUpFUFAIp0+dBOBU/EkGDo7E0cmJwoKCatVxq1Y+PpxNSCAtJQWAhITTBAS0ZeP6tQ/kuLy9fVCpLNi9YztXr11l5/atdO3WndYBASScqgjIDx3YR05ODrm5eYwZa8LFpVGVdTVu7Epaagp2dvZVpva4ump4fPxEfli+lPLyinSlI4cPVllX1J7dHDt6mJDQcCZMeoIjhw/x6+aNtGzZkl+3bK5yarlT8fEAXL12laKiIpycHCkpKcGrlTdKpYqIiC4A2Ds44ODoSIsWXubzrNPpOHXyBJZWNVs1sm1QII6ODkx64mkAHJ0c8fBsRlFRERkZGWRmXgLgwP59PDJseI3qFkIIIUTD16CC+mbNW5iDl/79BtKiRQsWLVxAZuYlXnnt9XuWLysr4+SJEwQHh2BjraakpJj4kyeq3reK9BuAq6Ul5vcGgx59ud782WjQm6ceGzlqNJmZl5n3+VyMRhN/+eubNTrWgIC22NrZ0a59R9q172jeHt6uPbt2bMdkMlaa5szqHndnLZQWKJWqSp9N3AxYf+/jUllUtK1QKa9/rvjTuzVoLi4qvr7NiMlkQqGonEbi7OxCh04daRsYhKWlJUHBoVhYWtJ/4EDiYmMoKizC1dWVJ59+hjWrfyLz0qVq9a2osIioPbs5k5DA5OemVjxlUCirHGSs1+srpny7cW6u/w4qlQUGg4H5X82rogUTBsPN81lWVnYzqP/NNYNKVfU/SZVSxZFDh267CG0T0BbjLQNiK367+rV4jRBCCCF+f/U6/cZKbY23jy8+vr6MHT8RJydHtmzaAFQEU8VFJWRlZdG0qQdOjs7VqvPA/jiaNGlKmzaBHD929I773Wjb28cXr1Y+Ne670QT5ebnk5ubSNjCwxuXDwttRUlzEtwvmm1+XLl0kNKwdAIUF+bhqNLi6arBSW+Hr628uW1paEYxqNG5YWVmhUChJTU3Bz98fDw9PPDw88fP3JynxXJ0el06nw8XFBaVKZb6Lf0NycjJGo5EePXtjb29Pj5690ev1nD9X/T7k5+exdcsWjAY9G9b9Qm7OFWKio9i6ZQtFhUU4ODoybsIkfli+lHOJlS/I2gYFm5/o3GBpZYVSdfNCx9PTk6KCioVW0lKT8fe7eU5v5ObfSUlJMXl5ufS7JaXpxjlITU3B16+1eXsrb2/z+8LCQjQarflzS69WVdafnJxEWHg7nJ1vPo2ytrbmQloq7u7u5rZatPTCwrJmTwGEEEII0fDV6zv1Go2GJ59+hsKCQi5eyuC/8740333dtXM7w0eOZsbMDzh9+lSVd9WrciEtjeysLNy0WpZ/v/Subd8YaFpWpuO9f7xdo75v2riOfgMG8u77H7AvLpb8vOrPxmNnb4+Pry/Re/dUOq7YmGhGjX6M5i1bEhMdRUBgMC//+TWys7I4fy7RnIOek5PD/rg4IocOo/+AQfzrw/dZu+ZnHh83kakvTKeosJCziWfYvGl9jY7pXscVE7UXz+bNeG/mLHZu30b2lSzzd9lZl1m9aiVDhg4jonNnLl68yIplS8jPz6uUV38vzs4u5hl9mnp4cvjQzbSaYSNGoXVvwnPPv2jedibhNEsWf0uv3n2IidrLkcOHzN85Ojjw0quvUVRYsYKj0WTix+XLANiwfi1jx03i2SnTaKxxJWbvHqKjqp529Ial3y1i3LhJhISFobZSc/p0PKtX/cT2rVsZNnwETz49mXJ9OYmJiTg6OgCwb18sk597nukvv8qV7CsUFRZAFeNcjx89iptGy7SXXqYwrwAbWxuWLVlMRkY6G9evY8zY8ajVak4nnCY763K1z6cQQggh/hgUDi7a+rEe9QM0Zux4NG5ufPnZ3IfdFSGEEEIIIe5bvU6/qWsuLo0IDAomIKBtnS4mJYQQQgghxMNUr9Nv6tqIUY/i7eNDXFwMJ48fe9jdEUIIIYQQok78T6bfCCGEEEII8UfyP5V+I4QQQgghxB+RBPVCCCGEEEI0cBLUCyGEEEII0cBJUC+EEEIIIUQDJ0G9EEIIIYQQDZwE9UIIIYQQQjRwEtQLIYQQQgjRwElQL4QQQgghRAMnQb0QQgghhBANnAT1QgghhBBCNHAS1AshhBBCCNHASVAvhBBCCCFEAydBvRBCCCGEEA3c/wMNxpfVpINFZQAAAABJRU5ErkJggg==;" vertex="1" parent="1">
          <mxGeometry x="282.04" y="639" width="610.93" height="481" as="geometry" />
        </mxCell>
        <mxCell id="_gnKU2DGZmJBK55BrfEl-58" value="&lt;span style=&quot;font-family: -apple-system, BlinkMacSystemFont, &amp;quot;Segoe UI&amp;quot;, &amp;quot;Noto Sans&amp;quot;, Helvetica, Arial, sans-serif, &amp;quot;Apple Color Emoji&amp;quot;, &amp;quot;Segoe UI Emoji&amp;quot;; text-align: start;&quot;&gt;&lt;font style=&quot;font-size: 17px; color: light-dark(rgb(145, 152, 161), rgb(75, 109, 115));&quot;&gt;&lt;b style=&quot;&quot;&gt;Showing runs from all workflows&lt;/b&gt;&lt;/font&gt;&lt;/span&gt;" style="rounded=1;whiteSpace=wrap;html=1;" vertex="1" parent="1">
          <mxGeometry x="429" y="530" width="320" height="60" as="geometry" />
        </mxCell>
        <mxCell id="_gnKU2DGZmJBK55BrfEl-59" value="&lt;h2 data-end=&quot;221&quot; data-start=&quot;196&quot;&gt;&lt;font style=&quot;font-size: 31px; color: light-dark(rgb(0, 0, 0), rgb(153, 252, 255));&quot;&gt;📂 Project Structure&lt;/font&gt;&lt;/h2&gt;&lt;br/&gt;&lt;pre data-end=&quot;877&quot; data-start=&quot;223&quot; class=&quot;overflow-visible!&quot;&gt;&lt;div class=&quot;contain-inline-size rounded-2xl relative bg-token-sidebar-surface-primary&quot;&gt;&lt;div class=&quot;sticky top-9&quot;&gt;&lt;div class=&quot;absolute end-0 bottom-0 flex h-9 items-center pe-2&quot;&gt;&lt;div class=&quot;bg-token-bg-elevated-secondary text-token-text-secondary flex items-center gap-4 rounded-sm px-2 font-sans text-xs&quot;&gt;&lt;/div&gt;&lt;/div&gt;&lt;/div&gt;&lt;div dir=&quot;ltr&quot; class=&quot;overflow-y-auto p-4&quot;&gt;&lt;/div&gt;&lt;/div&gt;&lt;/pre&gt;" style="rounded=1;whiteSpace=wrap;html=1;" vertex="1" parent="1">
          <mxGeometry x="427.5" y="30" width="320" height="60" as="geometry" />
        </mxCell>
      </root>
    </mxGraphModel>
  </diagram>
</mxfile>
